<?xml version="1.0" encoding="UTF-8"?>
<svg version="1.1" xmlns="http://www.w3.org/2000/svg" width="5000" height="3750">
<path d="M0 0 C0.99 0 1.98 0 3 0 C4.55541992 2.05004883 4.55541992 2.05004883 6.23046875 4.95703125 C7.17490845 6.57520752 7.17490845 6.57520752 8.13842773 8.22607422 C8.82155072 9.42149297 9.50457192 10.61696989 10.1875 11.8125 C10.90255679 13.04511331 11.61880271 14.2770375 12.33618164 15.50830078 C13.82702697 18.06914476 15.31267878 20.63289866 16.79492188 23.19873047 C20.12564927 28.95387604 23.53637014 34.66125438 26.9375 40.375 C32.84917908 50.3400287 38.71889879 60.32904256 44.57046509 70.32943726 C49.72313946 79.13484503 54.91208185 87.91757666 60.125 96.6875 C67.23461163 108.65814645 74.21088116 120.70223169 81.14550781 132.77490234 C82.99665616 135.99418481 84.85283364 139.21050895 86.7109375 142.42578125 C93.83821988 154.75898102 100.93442362 167.10940882 107.98632812 179.48583984 C111.40083243 185.47484114 114.83644691 191.45045738 118.30859375 197.40625 C119.00851996 198.60934218 119.70839063 199.81246667 120.40820312 201.015625 C121.73104511 203.28966388 123.06002422 205.55972155 124.39257812 207.828125 C124.98361328 208.84390625 125.57464844 209.8596875 126.18359375 210.90625 C126.70493896 211.79634766 127.22628418 212.68644531 127.76342773 213.60351562 C128.89020016 215.78720726 129.45761936 217.62600057 130 220 C113.0021834 221.00121313 96.02945543 221.15737311 79.00878906 221.13037109 C75.3198434 221.12459955 71.63096936 221.12801789 67.94202614 221.13394356 C65.05941227 221.13756723 62.17681528 221.13640356 59.2942009 221.13381577 C57.28025006 221.13283855 55.26629853 221.13583809 53.25234985 221.13894653 C49.83277581 221.1301812 46.41846902 221.08449004 43 221 C42.1642746 220.98387665 41.32854919 220.9677533 40.46749878 220.95114136 C36.96647223 220.7300455 35.35641758 220.38476226 32.93701172 217.77294922 C32.43959473 216.79342285 31.94217773 215.81389648 31.4296875 214.8046875 C30.85001221 213.70664795 30.27033691 212.6086084 29.6730957 211.47729492 C29.37988434 210.8898349 29.08667297 210.30237488 28.78457642 209.69711304 C27.55183862 207.22762552 26.25752363 204.7924391 24.96498108 202.35386658 C24.30066493 201.09971231 23.63950319 199.84388234 22.98143005 198.58644104 C19.67843077 192.29873472 16.03846666 186.23316543 12.3125 180.1875 C11.73677246 179.24696777 11.16104492 178.30643555 10.56787109 177.33740234 C8.31290534 173.67165813 6.0457377 170.03377932 3.60546875 166.48828125 C2 164 2 164 2 162 C1.34 162 0.68 162 0 162 C-0.41511841 163.09066772 -0.41511841 163.09066772 -0.83862305 164.20336914 C-1.93651171 166.84711828 -3.17284146 169.25693592 -4.58203125 171.74609375 C-5.09499756 172.65415771 -5.60796387 173.56222168 -6.13647461 174.49780273 C-6.68956299 175.46790283 -7.24265137 176.43800293 -7.8125 177.4375 C-8.3907251 178.45593994 -8.9689502 179.47437988 -9.56469727 180.52368164 C-14.51245149 189.20822004 -19.58330723 197.81695399 -24.6875 206.41015625 C-29.92584438 215.23353144 -35.07508817 224.10909183 -40.23828125 232.9765625 C-41.97952417 235.96485966 -43.72361792 238.95147264 -45.46875 241.9375 C-53.39590471 255.50392711 -61.26602886 269.10245897 -69.10888672 282.71777344 C-72.23680151 288.14659946 -75.36863163 293.57316556 -78.5 299 C-79.11939453 300.07378906 -79.73878906 301.14757813 -80.37695312 302.25390625 C-83.48778333 307.64687516 -86.59995149 313.03906364 -89.71484375 318.4296875 C-103.13186015 341.65449533 -116.46196833 364.92295322 -129.51464844 388.35473633 C-131.32565104 391.57995217 -133.16364817 394.78914644 -135 398 C-28.36909463 398.15672994 -28.36909463 398.15672994 78.25983429 397.59428024 C81.93507432 397.56252096 85.61032554 397.53256606 89.2855835 397.50296021 C95.00404888 397.45626359 100.72243761 397.40413889 106.44080925 397.34712219 C108.50665924 397.32697172 110.57252311 397.30818734 112.63839912 397.29090881 C115.43339882 397.2669112 118.2282714 397.23698428 121.02319336 397.20532227 C121.82353186 397.19956712 122.62387035 397.19381197 123.44846153 397.18788242 C128.37250048 397.12375386 133.12310313 396.69086938 138 396 C135.71350399 391.99702822 133.42128628 387.99736213 131.125 384 C130.78596649 383.40952881 130.44693298 382.81905762 130.09762573 382.21069336 C125.50014977 374.21366092 120.81704993 366.28736021 115.79541016 358.546875 C113 354.19926075 113 354.19926075 113 352 C62.84 352 12.68 352 -39 352 C-37.8754717 345.25283019 -37.8754717 345.25283019 -35.55078125 341.4453125 C-35.0388623 340.59445068 -34.52694336 339.74358887 -33.99951172 338.86694336 C-33.44279785 337.96210205 -32.88608398 337.05726074 -32.3125 336.125 C-31.13322493 334.17110959 -29.95487384 332.21666128 -28.77734375 330.26171875 C-27.85284424 328.73490479 -27.85284424 328.73490479 -26.90966797 327.17724609 C-23.67565062 321.79658875 -20.52804226 316.36586931 -17.375 310.9375 C-16.21654136 308.94638441 -15.05771254 306.95548413 -13.8984375 304.96484375 C-13.41036621 304.1255835 -12.92229492 303.28632324 -12.41943359 302.42163086 C-11.43575549 300.74342256 -10.43949483 299.07255042 -9.43334961 297.40771484 C-7.91951631 294.86480495 -6.5545787 292.26006502 -5.1965332 289.63134766 C2.27614642 275.23563627 2.27614642 275.23563627 6 272 C30.74949039 265.76060936 59.9583777 268.80498213 85.37574768 268.81196976 C87.70439843 268.81248982 90.033044 268.81134242 92.36169434 268.81002808 C104.42038402 268.80858765 104.42038402 268.80858765 110.38902283 268.88276672 C111.49688566 268.89649684 111.49688566 268.89649684 112.62712955 268.91050434 C114.12240143 268.92915385 115.61766814 268.94822168 117.11292934 268.96770763 C121.88791085 269.01708215 126.64947864 268.95162794 131.42274284 268.8187685 C134.70281973 268.73745903 137.98214663 268.71075266 141.26311493 268.69263268 C142.8165151 268.67130836 144.36980626 268.62626567 145.92173004 268.55527687 C157.49262695 268.04077849 157.49262695 268.04077849 161.62861443 271.27257347 C167.16474376 276.99170293 171.03929985 284.3142157 173.93359375 291.66796875 C176.15055188 297.06982058 178.56667863 302.04163689 181.75 306.9375 C190.76757377 321.8922168 199.57748943 336.97112284 208.39816284 352.04251099 C212.93100343 359.78678529 217.48828286 367.51546839 222.07739258 375.2265625 C228.88301648 386.66329168 235.56044585 398.16371075 242.14086914 409.73071289 C246.38075592 417.18147571 250.66712631 424.60292298 255 432 C260.99367188 442.23373291 266.89132519 452.52031027 272.75976562 462.82617188 C273.39978516 463.94958984 274.03980469 465.07300781 274.69921875 466.23046875 C275.26471436 467.22457764 275.83020996 468.21868652 276.4128418 469.24291992 C277.46013058 471.06218346 278.55782357 472.8534565 279.70629883 474.6105957 C281 477 281 477 281 481 C229.20908072 482.21753914 177.41812109 482.14917131 125.61588206 482.13529945 C116.76229875 482.13299406 107.90871735 482.13273958 99.05513382 482.13381577 C97.78022703 482.133969 96.50532025 482.13412223 95.19177992 482.13428011 C92.59977598 482.13459992 90.00777204 482.13492413 87.4157681 482.1352527 C64.00643981 482.1379992 40.59711618 482.13518807 17.18778873 482.1299101 C-4.09648921 482.12514782 -25.38076117 482.12560876 -46.66503906 482.13037109 C-70.74122549 482.13574051 -94.81740786 482.13782399 -118.8935951 482.13475883 C-121.46402001 482.13444035 -124.03444493 482.13412598 -126.60486984 482.13381577 C-128.50080009 482.13358435 -128.50080009 482.13358435 -130.43503196 482.13334826 C-139.27963217 482.13249006 -148.12423023 482.13393049 -156.96883011 482.13629532 C-167.74212575 482.13911343 -178.51541412 482.13831211 -189.28870894 482.13301457 C-194.7686721 482.13040741 -200.24862316 482.12932143 -205.7285862 482.13266373 C-261.2075406 482.16355746 -261.2075406 482.16355746 -279 480 C-277.5839494 476.21481268 -275.84578935 472.80250679 -273.83203125 469.30078125 C-272.87478149 467.63088135 -272.87478149 467.63088135 -271.89819336 465.92724609 C-271.20304466 464.72228318 -270.5078113 463.5173691 -269.8125 462.3125 C-269.09031382 461.05565201 -268.3683941 459.79865088 -267.64672852 458.54150391 C-265.79256933 455.31362852 -263.93436047 452.08810651 -262.07458496 448.86346436 C-260.42607817 446.00474796 -258.77968312 443.14481546 -257.1328125 440.28515625 C-254.04688685 434.93002443 -250.95564461 429.57797867 -247.86328125 424.2265625 C-245.9796495 420.96475993 -244.09877679 417.70138156 -242.21875 414.4375 C-230.34703448 393.83013834 -218.35324145 373.29524878 -206.3190918 352.7824707 C-201.2836273 344.19795266 -196.26833087 335.60187077 -191.26464844 326.9987793 C-188.08592259 321.54343567 -184.87911679 316.10592748 -181.64453125 310.68359375 C-181.09435585 309.76015167 -181.09435585 309.76015167 -180.5330658 308.8180542 C-178.74389372 305.81527487 -176.95128748 302.81466014 -175.15209961 299.81787109 C-174.50893799 298.73973145 -173.86577637 297.6615918 -173.203125 296.55078125 C-172.63239258 295.59856689 -172.06166016 294.64635254 -171.47363281 293.6652832 C-169.95114417 291.05929437 -169.95114417 291.05929437 -168.98730469 288.34057617 C-167.95380721 285.89049202 -166.89797153 284.80606007 -165 283 C-163.82913013 281.09328223 -163.82913013 281.09328223 -162.80078125 278.97265625 C-162.19943359 277.79243896 -162.19943359 277.79243896 -161.5859375 276.58837891 C-161.16570312 275.75483887 -160.74546875 274.92129883 -160.3125 274.0625 C-156.78488231 267.18806803 -153.07678747 260.74728731 -148.59375 254.4453125 C-147.01773311 252.02720815 -145.97152449 249.71055332 -145 247 C-144.34 247 -143.68 247 -143 247 C-142.59624146 245.93313965 -142.59624146 245.93313965 -142.18432617 244.84472656 C-139.99838547 239.59414295 -137.07898276 234.71233058 -134.3125 229.75 C-133.98352722 229.15818939 -133.65455444 228.56637878 -133.31561279 227.95663452 C-127.81589528 218.07300979 -122.084385 208.34876482 -116.22387695 198.67407227 C-111.98702915 191.67521097 -107.90061154 184.6132003 -103.9296875 177.4609375 C-99.61722439 169.72643888 -95.18192477 162.03337218 -90.44921875 154.546875 C-85.84016231 147.22961466 -81.57918945 139.74415562 -77.375 132.1875 C-70.97690932 120.68984316 -64.39814887 109.30864987 -57.73681641 97.96191406 C-55.45087222 94.06353412 -53.1758504 90.15883858 -50.90112305 86.25390625 C-26.35357729 44.1184409 -26.35357729 44.1184409 -18.45703125 31.11328125 C-16.63168718 28.0855857 -14.85583285 25.0306687 -13.0884552 21.96881104 C-11.63930808 19.46099484 -10.18155605 16.95822475 -8.72341919 14.45562744 C-7.9941909 13.19880118 -7.26895017 11.93965238 -6.54782104 10.67816162 C-5.53408518 8.90571631 -4.50687381 7.14175334 -3.4765625 5.37890625 C-2.87924316 4.3432251 -2.28192383 3.30754395 -1.66650391 2.24047852 C-1.11655762 1.50112061 -0.56661133 0.7617627 0 0 Z " fill="#FCFCFC" transform="translate(1718,1640)"/>
<path d="M0 0 C3.22253568 2.91727639 6.35553854 5.92006489 9.48046875 8.94140625 C10.47820313 9.86179687 10.47820313 9.86179687 11.49609375 10.80078125 C32.19622375 30.3401563 45.33229854 59.56193798 51.48046875 86.94140625 C51.48046875 88.26140625 51.48046875 89.58140625 51.48046875 90.94140625 C41.33385354 93.39634363 31.13621903 95.39389809 20.875 97.296875 C19.2168173 97.60628045 17.55867077 97.91587977 15.90055847 98.22566223 C12.45608165 98.86857446 9.01126225 99.50960642 5.56616211 100.14916992 C1.14602093 100.96983924 -3.27333808 101.79463593 -7.6924696 102.62072277 C-11.10216255 103.25776917 -14.51218864 103.89301656 -17.92232704 104.52767372 C-19.55355031 104.83141652 -21.18468365 105.13564269 -22.81572533 105.44035912 C-25.08149428 105.86330908 -27.34768491 106.28391899 -29.61401367 106.70385742 C-31.54708626 107.06334724 -31.54708626 107.06334724 -33.51921082 107.43009949 C-36.51953125 107.94140625 -36.51953125 107.94140625 -38.51953125 107.94140625 C-38.8280603 107.17231934 -38.8280603 107.17231934 -39.14282227 106.38769531 C-50.74561601 77.65574253 -65.52964024 58.20794969 -94.26953125 45.19140625 C-124.42324872 33.19476597 -161.61996038 35.26023297 -191.51953125 46.94140625 C-221.68537515 60.03279676 -242.24182066 82.74904876 -254.51953125 112.94140625 C-273.12256892 161.55302875 -270.42957508 225.95231778 -249.58203125 273.50390625 C-246.45801624 280.37081697 -242.95096025 286.81618661 -238.51953125 292.94140625 C-237.93945312 293.74320313 -237.359375 294.545 -236.76171875 295.37109375 C-216.49094335 321.91817618 -188.60519453 336.60131757 -155.73046875 341.34375 C-121.06557541 345.16631377 -87.9498386 335.24562853 -57.39453125 319.44140625 C-56.79366699 319.13493164 -56.19280273 318.82845703 -55.57373047 318.51269531 C-54.31527378 317.83378659 -53.08338722 317.10419349 -51.87646484 316.33740234 C-49.51953125 314.94140625 -49.51953125 314.94140625 -45.96337891 313.43994141 C-41.60883199 311.34301781 -38.08767455 309.13284708 -35.51953125 304.94140625 C-33.01371369 295.75095711 -33.89461785 285.72374587 -34.14453125 276.31640625 C-34.26828125 267.28265625 -34.39203125 258.24890625 -34.51953125 248.94140625 C-68.50953125 248.94140625 -102.49953125 248.94140625 -137.51953125 248.94140625 C-137.51953125 223.86140625 -137.51953125 198.78140625 -137.51953125 172.94140625 C-73.16953125 172.94140625 -8.81953125 172.94140625 57.48046875 172.94140625 C57.70734375 202.27015625 57.93421875 231.59890625 58.16796875 261.81640625 C58.31818481 275.69743408 58.31818481 275.69743408 58.47143555 289.85888672 C58.52111816 301.17602539 58.52111816 301.17602539 58.53034973 306.47732544 C58.5405825 310.17346099 58.58173013 313.86785167 58.64179993 317.56350708 C58.71751841 322.28479152 58.73982738 327.00355636 58.72426379 331.72539163 C58.72751551 333.45367506 58.74918319 335.18205067 58.79183519 336.90981078 C59.09474766 349.78320899 59.09474766 349.78320899 55.09389687 355.13211441 C52.33920268 357.67315008 49.57375537 359.8327873 46.48046875 361.94140625 C45.08993604 363.01983974 43.70225452 364.10198611 42.3203125 365.19140625 C41.02716702 366.11881361 39.72624883 367.03547421 38.41796875 367.94140625 C37.69738281 368.44285156 36.97679688 368.94429687 36.234375 369.4609375 C-10.508011 401.40426357 -69.10627626 419.35080696 -125.51953125 420.94140625 C-127.453125 421.00328125 -127.453125 421.00328125 -129.42578125 421.06640625 C-190.94631143 422.0352335 -250.08394656 404.30991066 -295.51953125 361.94140625 C-296.30972656 361.21695312 -297.09992187 360.4925 -297.9140625 359.74609375 C-309.33953408 348.85590274 -318.835686 335.68714882 -326.51953125 321.94140625 C-326.93412598 321.21034668 -327.3487207 320.47928711 -327.77587891 319.72607422 C-335.50989563 305.96959899 -341.44661095 291.87364821 -346.51953125 276.94140625 C-346.8119873 276.08724121 -347.10444336 275.23307617 -347.40576172 274.35302734 C-350.78039711 264.32457344 -353.23363575 254.19705321 -355.26953125 243.81640625 C-355.46836914 242.80465332 -355.66720703 241.79290039 -355.87207031 240.75048828 C-359.08211105 223.45866505 -359.89334403 206.44123738 -359.83203125 188.87890625 C-359.83020844 187.79635559 -359.82838562 186.71380493 -359.82650757 185.59844971 C-359.78187855 169.86432349 -359.45616553 154.4453584 -356.51953125 138.94140625 C-356.34260742 137.98314941 -356.16568359 137.02489258 -355.98339844 136.03759766 C-347.92749499 93.53888074 -330.5311207 53.5374585 -300.51953125 21.94140625 C-300.03033203 21.4196582 -299.54113281 20.89791016 -299.03710938 20.36035156 C-237.07381075 -45.35714937 -123.41118587 -59.41180664 0 0 Z " fill="#FFFFFF" transform="translate(2501.51953125,1683.05859375)"/>
<path d="M0 0 C30.36 0 60.72 0 92 0 C96.00125 12.024375 100.0025 24.04875 104.125 36.4375 C115.09941652 69.39927329 115.09941652 69.39927329 126.28717041 102.28903198 C131.6820562 117.98178179 136.92055119 133.72540906 142.15411377 149.47259521 C148.64461699 168.99668477 155.24823246 188.47968845 161.9286499 207.93951416 C163.98851738 213.94770876 166.0074131 219.96914299 168 226 C174.02240619 208.67011656 179.94437226 191.31220963 185.59258652 173.85642624 C187.10212136 169.19276785 188.61756598 164.53103118 190.13330078 159.86938477 C190.44929293 158.8975248 190.76528507 157.92566483 191.09085274 156.92435455 C194.63257306 146.04138723 198.21591395 135.17221292 201.8046875 124.3046875 C202.29601764 122.81662283 202.29601764 122.81662283 202.79727364 121.29849625 C204.47174215 116.22761793 206.14687863 111.15696064 207.82247925 106.0864563 C211.32009341 95.50238842 214.81498435 84.91742164 218.30859375 74.33203125 C218.81777564 72.78931329 218.81777564 72.78931329 219.33724403 71.21542931 C225.55262146 52.38129783 231.73074595 33.53532426 237.84912109 14.66943359 C238.13661728 13.78463821 238.42411346 12.89984283 238.72032166 11.98823547 C239.23636347 10.39965719 239.75110851 8.8106567 240.26417542 7.22111511 C241.88784734 2.22430533 241.88784734 2.22430533 243 0 C272.37 0 301.74 0 332 0 C330.87509628 7.87432604 330.87509628 7.87432604 329.62744141 11.19213867 C329.34771988 11.94683441 329.06799835 12.70153015 328.77980042 13.47909546 C328.32032265 14.68633774 328.32032265 14.68633774 327.8515625 15.91796875 C327.36567909 17.22116562 327.36567909 17.22116562 326.86997986 18.5506897 C326.1654056 20.43822502 325.45765797 22.32457816 324.74710083 24.20986938 C323.20307511 28.30712886 321.67470256 32.41017356 320.14533997 36.51292419 C319.33522316 38.68586813 318.52432646 40.85852144 317.71269226 43.03089905 C313.67080868 53.85564392 309.70324204 64.7070458 305.74673462 75.56323242 C303.7524533 81.03508194 301.75514761 86.50582708 299.7578125 91.9765625 C299.36203506 93.06072449 298.96625763 94.14488647 298.55848694 95.26190186 C294.36611073 106.74247221 290.15388438 118.21572889 285.9375 129.6875 C285.38341965 131.19505356 285.38341965 131.19505356 284.81814575 132.73306274 C282.95700211 137.79658995 281.09552102 142.85999301 279.23388672 147.92333984 C276.98953761 154.02794487 274.74652387 160.13303995 272.50390625 166.23828125 C272.13245483 167.2495105 271.76100342 168.26073975 271.3782959 169.3026123 C270.25217533 172.36840015 269.12608219 175.43419806 268 178.5 C259.75149412 200.95687351 259.75149412 200.95687351 255.6506958 212.11042786 C247.53980708 234.17085141 239.44238152 256.23612425 231.375 278.3125 C230.97926788 279.39529236 230.58353577 280.47808472 230.17581177 281.59368896 C225.62787706 294.03970083 221.09296445 306.49031712 216.57852173 318.94851685 C213.34796583 327.86205257 210.10248878 336.7700839 206.84838867 345.67504883 C206.04301727 347.88211412 205.24076439 350.09028606 204.43945312 352.29882812 C190.91421332 389.51896585 175.82887563 426.28816703 138.20703125 444.14453125 C104.84032056 459.2832028 62.8984862 458.25787225 28 450 C26.58460611 441.2529017 25.43003059 432.50960899 24.4921875 423.69921875 C24.36184113 422.4968306 24.23149475 421.29444244 24.09719849 420.05561829 C23.68706516 416.2665348 23.280961 412.47703254 22.875 408.6875 C22.59532001 406.09697627 22.31537449 403.50648119 22.03515625 400.91601562 C21.35370466 394.61100465 20.67554825 388.30564607 20 382 C22.73050084 382.3200408 25.46096392 382.64039822 28.19140625 382.9609375 C29.34558044 383.09616821 29.34558044 383.09616821 30.52307129 383.23413086 C33.64209887 383.60048486 36.76013619 383.96961739 39.87573242 384.36425781 C59.19437001 386.80739635 79.65649623 385.61666076 95.6875 373.4375 C107.54105804 362.30321126 117.45661282 342.78065875 121 327 C120.58748401 320.14755599 117.98113257 314.08897298 115.5390625 307.73046875 C115.08187332 306.52298981 114.62468414 305.31551086 114.15364075 304.07144165 C112.91131786 300.7907474 111.66019551 297.51347405 110.40742111 294.23675919 C109.08805467 290.78117272 107.77700198 287.32243466 106.46508789 283.86401367 C104.06776859 277.54769802 101.66371336 271.23397258 99.25667477 264.92135525 C96.83807463 258.57753283 94.42781459 252.23055834 92.01953125 245.8828125 C88.94897382 237.79157287 85.87457005 229.70180853 82.796875 221.61328125 C77.58418307 207.91248241 72.38534486 194.20643711 67.1875 180.5 C66.25903578 178.05183822 65.33056898 175.60367741 64.40209961 173.15551758 C62.53412038 168.23000296 60.66621269 163.30446121 58.79833984 158.37890625 C55.11308564 148.66109195 51.42704436 138.94357623 47.7409668 129.22607422 C45.91808672 124.420458 44.09533947 119.61479144 42.27270508 114.80908203 C37.32288149 101.75824498 32.37103109 88.70818037 27.4168663 75.65899086 C23.48375982 65.29894479 19.55441672 54.93747694 15.62869263 44.57463074 C13.38659555 38.65643716 11.14128059 32.73949072 8.8913269 26.82427979 C7.72467744 23.75432538 6.56193229 20.6829064 5.4006958 17.61090088 C4.89132773 16.26579883 4.38027229 14.9213343 3.86737061 13.57757568 C3.19091594 11.80473677 2.52100459 10.02940506 1.8515625 8.25390625 C1.48885254 7.29814697 1.12614258 6.3423877 0.75244141 5.35766602 C0 3 0 3 0 0 Z " fill="#FFFFFF" transform="translate(3672,1772)"/>
<path d="M0 0 C2.48347552 2.1970656 4.91083212 4.44124442 7.32421875 6.71484375 C7.98808594 7.31425781 8.65195313 7.91367188 9.3359375 8.53125 C39.21516706 36.59227086 50.21410119 81.27967053 53.32421875 120.71484375 C53.40881348 121.72490479 53.40881348 121.72490479 53.49511719 122.75537109 C54.52423655 135.43667922 54.32421875 147.95191858 54.32421875 160.71484375 C-16.29578125 160.71484375 -86.91578125 160.71484375 -159.67578125 160.71484375 C-156.13957099 187.82578909 -152.0470858 209.14596612 -130.67578125 226.71484375 C-115.19168126 237.9266681 -97.06112029 241.41437897 -78.3203125 238.5 C-64.77902102 235.58274428 -55.2451267 228.86579656 -47.45703125 217.5390625 C-43.70370341 211.58806243 -40.90713001 205.51995123 -38.53515625 198.90234375 C-38.00873535 197.43861328 -38.00873535 197.43861328 -37.47167969 195.9453125 C-37.2090332 195.20925781 -36.94638672 194.47320313 -36.67578125 193.71484375 C-8.29359088 198.10115929 20.02198021 202.84079688 48.32421875 207.71484375 C49.72274103 211.9104106 48.04697331 214.58948606 46.38671875 218.46484375 C46.06533936 219.22273193 45.74395996 219.98062012 45.4128418 220.76147461 C31.34946881 253.32910691 7.3402045 280.23650516 -25.8828125 293.8984375 C-58.80027308 306.71892215 -98.13338546 309.17711764 -132.67578125 301.71484375 C-133.4941748 301.54855469 -134.31256836 301.38226562 -135.15576172 301.2109375 C-157.97570757 296.4868544 -178.995606 287.04756716 -196.67578125 271.71484375 C-197.90361328 270.68617188 -197.90361328 270.68617188 -199.15625 269.63671875 C-230.9838831 242.20080557 -244.56278402 199.53421736 -247.92578125 158.90234375 C-251.54388769 109.18255846 -243.78220252 55.87564999 -210.67578125 16.71484375 C-210.24539551 16.20469727 -209.81500977 15.69455078 -209.37158203 15.16894531 C-184.96982009 -13.36763502 -150.83079926 -30.05489498 -113.46582031 -33.11083984 C-72.5946419 -35.66439439 -31.67834764 -27.05377135 0 0 Z M-133.67578125 46.71484375 C-134.51367188 47.35550781 -135.3515625 47.99617188 -136.21484375 48.65625 C-149.06361472 59.40434889 -155.22843024 75.58337958 -157.67578125 91.71484375 C-158.00578125 96.99484375 -158.33578125 102.27484375 -158.67578125 107.71484375 C-116.76578125 107.71484375 -74.85578125 107.71484375 -31.67578125 107.71484375 C-32.29563278 94.65578771 -32.29563278 94.65578771 -34.73828125 82.15234375 C-34.95379639 81.36424316 -35.16931152 80.57614258 -35.39135742 79.76416016 C-40.28813387 62.98343366 -49.76960639 50.01597193 -64.67578125 40.71484375 C-87.30936057 28.56548373 -113.41578508 30.77079747 -133.67578125 46.71484375 Z " fill="#FFFFFF" transform="translate(2863.67578125,1798.28515625)"/>
<path d="M0 0 C1.04285156 0.36867188 2.08570312 0.73734375 3.16015625 1.1171875 C15.67241127 5.897891 26.55212765 13.56915085 36 23 C36.93392578 23.91652344 36.93392578 23.91652344 37.88671875 24.8515625 C69.07871417 57.79591721 62.30772869 114.65152321 62.20278788 156.15410876 C62.19009485 162.04097178 62.18909566 167.92783793 62.18673706 173.81471252 C62.18057589 184.90952205 62.16423949 196.00429112 62.14403808 207.09908301 C62.12150981 219.75251797 62.11064354 232.40595511 62.10064721 245.05940521 C62.07986704 271.03963092 62.04325984 297.01980132 62 323 C33.29 323 4.58 323 -25 323 C-25.04898438 308.87832031 -25.09796875 294.75664062 -25.1484375 280.20703125 C-25.18384391 271.23371801 -25.21973688 262.26041103 -25.2578125 253.28710938 C-25.31809072 239.06015481 -25.37644427 224.83321193 -25.421875 210.60620117 C-25.4549802 200.24190325 -25.49491136 189.87765705 -25.54279006 179.51341647 C-25.56787232 174.03372023 -25.58970582 168.5540575 -25.60334396 163.07431984 C-25.61633236 157.8992025 -25.63856058 152.72420115 -25.66738319 147.54914856 C-25.6763298 145.66645259 -25.68211825 143.78373802 -25.68421364 141.90102196 C-25.6970068 132.13780866 -26.00108556 122.47703818 -26.91055298 112.75224304 C-26.98989401 111.90298022 -27.06923505 111.0537174 -27.15098035 110.17871934 C-28.38076161 98.15287648 -30.74927576 86.94112455 -38 77 C-38.721875 75.948125 -39.44375 74.89625 -40.1875 73.8125 C-49.76263199 64.23736801 -62.20212294 59.60759556 -75.5859375 58.96875 C-91.60391645 59.11536766 -106.08818609 63.47128152 -119 73 C-119.77988281 73.57234375 -120.55976563 74.1446875 -121.36328125 74.734375 C-137.58094834 87.84295566 -142.12284486 107.18188048 -144.421875 126.93359375 C-145.75669358 140.21990958 -146.15710182 153.44804486 -146.20532227 166.7890625 C-146.21493103 168.50568867 -146.22494271 170.22231263 -146.23532104 171.93893433 C-146.262052 176.54526358 -146.28323105 181.15160274 -146.30332303 185.75796509 C-146.32538193 190.59191636 -146.35267203 195.42583821 -146.37937927 200.25976562 C-146.42903986 209.38945295 -146.47407603 218.51915684 -146.51740164 227.64887619 C-146.57629991 240.00286138 -146.64244148 252.35680773 -146.70815182 264.71075821 C-146.81130919 284.14047919 -146.9048751 303.57023418 -147 323 C-175.38 323 -203.76 323 -233 323 C-233 216.08 -233 109.16 -233 -1 C-206.6 -1 -180.2 -1 -153 -1 C-152.67 13.85 -152.34 28.7 -152 44 C-149.03 40.37 -146.06 36.74 -143 33 C-106.8970354 -6.16253787 -49.64015048 -18.15970456 0 0 Z " fill="#FFFFFF" transform="translate(3219,1773)"/>
<path d="M0 0 C0.74507812 0.60199219 1.49015625 1.20398437 2.2578125 1.82421875 C15.89386683 13.15592244 25.30510763 29.27985873 31.5625 45.6875 C31.81418945 46.34661377 32.06587891 47.00572754 32.32519531 47.68481445 C33.61615556 51.27860631 34.10327259 54.20807363 34 58 C24.32604091 59.83178046 14.65099185 61.65767878 4.97451591 63.47612 C0.48115904 64.32071948 -4.01180045 65.16732419 -8.50390625 66.01855469 C-12.84074559 66.84028591 -17.17855655 67.65669324 -21.51708603 68.4694519 C-23.17039411 68.78013544 -24.82334599 69.09272087 -26.47592545 69.40725708 C-28.79439056 69.84819196 -31.11404123 70.28228755 -33.43408203 70.71484375 C-34.45368263 70.91120926 -34.45368263 70.91120926 -35.49388123 71.11154175 C-39.3800161 71.82759476 -43.05083149 72.12552031 -47 72 C-47.49628906 70.9378125 -47.99257812 69.875625 -48.50390625 68.78125 C-53.8784066 57.44998112 -53.8784066 57.44998112 -62 48 C-62.59167969 47.46246094 -63.18335937 46.92492188 -63.79296875 46.37109375 C-76.13173714 36.22023068 -91.05330057 34.63871633 -106.40185547 34.68432617 C-108.60045023 34.68746495 -110.79766636 34.66402888 -112.99609375 34.63867188 C-128.55994753 34.56962407 -147.66337488 35.75674783 -159.40234375 47.0859375 C-163.06116749 51.46936937 -164.29649524 55.82561544 -164.0625 61.5 C-163.15331069 66.83574736 -160.98831078 70.37963232 -157 74 C-148.68553389 78.64327697 -139.67771594 81.66468482 -130.59765625 84.41796875 C-129.35017105 84.80035202 -128.10268585 85.18273529 -126.81739807 85.57670593 C-114.13755809 89.4116327 -101.27472932 92.43382384 -88.36837769 95.4034729 C10.76598841 118.25914665 10.76598841 118.25914665 34.0625 153.703125 C46.02550244 174.05952431 48.94689172 201.59247068 43.375 224.4375 C36.14872576 251.18159062 17.47916697 274.59500716 -6.328125 288.6171875 C-20.58861931 296.63606631 -35.7307221 301.8336289 -51.6875 305.3125 C-52.36167969 305.45993652 -53.03585938 305.60737305 -53.73046875 305.75927734 C-69.41468748 308.87929567 -85.18759308 309.37359942 -101.125 309.3125 C-102.60818726 309.30976578 -102.60818726 309.30976578 -104.12133789 309.30697632 C-118.92956204 309.26105587 -133.42682709 308.88009572 -148 306 C-148.90492188 305.82307617 -149.80984375 305.64615234 -150.7421875 305.46386719 C-172.74827858 301.0025483 -194.36483861 293.23500077 -212 279 C-212.52190918 278.58347168 -213.04381836 278.16694336 -213.58154297 277.73779297 C-235.19737429 260.39566957 -250.03032839 237.87344534 -257 211 C-257 210.34 -257 209.68 -257 209 C-246.41970871 206.95471211 -235.83225286 205.12810008 -225.17578125 203.51953125 C-223.73087025 203.29975226 -222.28598036 203.0798345 -220.84111023 202.85978699 C-217.8508148 202.40506347 -214.86021614 201.95240518 -211.86938477 201.5012207 C-208.0447793 200.92402065 -204.22111297 200.34083394 -200.39765644 199.75607777 C-197.43062903 199.30308394 -194.46308677 198.85353934 -191.49538231 198.4050045 C-190.08425844 198.19124575 -188.67330646 197.97634886 -187.262537 197.76026344 C-185.29967024 197.46007201 -183.33600678 197.16510408 -181.37231445 196.87036133 C-180.25919388 196.70176102 -179.1460733 196.53316071 -177.9992218 196.35945129 C-175.29375301 196.03520577 -172.72057194 195.92958538 -170 196 C-169.70867188 196.95519531 -169.41734375 197.91039062 -169.1171875 198.89453125 C-164.10207732 214.90670516 -157.0434917 228.63664398 -142.06640625 237.46875 C-119.35278049 248.8110956 -90.37520267 248.90099467 -66.50146484 241.09667969 C-56.56542481 237.5975422 -49.50793243 233.13888175 -44.25 223.9375 C-40.70606811 215.60926005 -41.69716269 208.19649077 -45 200 C-45.26039063 199.29230469 -45.52078125 198.58460938 -45.7890625 197.85546875 C-47.44928013 195.3115869 -49.17427675 195.05783486 -52 194 C-52.85625977 193.61739014 -53.71251953 193.23478027 -54.59472656 192.84057617 C-61.8267993 189.64575815 -69.01947416 187.53350985 -76.71923828 185.77667236 C-78.82971041 185.29428055 -80.93654266 184.79809073 -83.04296875 184.29833984 C-86.09631207 183.57400474 -89.15039742 182.85295099 -92.20507812 182.13427734 C-209.13575806 154.54345456 -209.13575806 154.54345456 -233 118 C-245.49175429 97.01192728 -248.25482883 71.45422258 -243.03125 47.73046875 C-238.4528218 31.16835158 -230.17846022 17.19862324 -218 5 C-217.18015625 4.16855469 -216.3603125 3.33710937 -215.515625 2.48046875 C-167.3956977 -43.85987544 -49.62167387 -43.52627794 0 0 Z " fill="#FFFFFF" transform="translate(3593,1794)"/>
<path d="M0 0 C0 1.32 0 2.64 0 4 C-51.79091928 5.21753914 -103.58187891 5.14917131 -155.38411794 5.13529945 C-164.23770125 5.13299406 -173.09128265 5.13273958 -181.94486618 5.13381577 C-183.21977297 5.133969 -184.49467975 5.13412223 -185.80822008 5.13428011 C-188.40022402 5.13459992 -190.99222796 5.13492413 -193.5842319 5.1352527 C-216.99356019 5.1379992 -240.40288382 5.13518807 -263.81221127 5.1299101 C-285.09648921 5.12514782 -306.38076117 5.12560876 -327.66503906 5.13037109 C-351.74122549 5.13574051 -375.81740786 5.13782399 -399.8935951 5.13475883 C-402.46402001 5.13444035 -405.03444493 5.13412598 -407.60486984 5.13381577 C-409.50080009 5.13358435 -409.50080009 5.13358435 -411.43503196 5.13334826 C-420.27963217 5.13249006 -429.12423023 5.13393049 -437.96883011 5.13629532 C-448.74212575 5.13911343 -459.51541412 5.13831211 -470.28870894 5.13301457 C-475.7686721 5.13040741 -481.24862316 5.12932143 -486.7285862 5.13266373 C-542.2075406 5.16355746 -542.2075406 5.16355746 -560 3 C-560 2.34 -560 1.68 -560 1 C-558.60003446 1.00056958 -558.60003446 1.00056958 -557.17178679 1.00115067 C-501.50317661 1.02370828 -445.83456686 1.04075832 -390.16595301 1.05106533 C-383.43908585 1.05231218 -376.71221871 1.0536088 -369.98535156 1.05493164 C-368.98148567 1.05512778 -368.98148567 1.05512778 -367.95733965 1.05532788 C-345.77667356 1.05968549 -323.59601051 1.06761871 -301.41534609 1.0771528 C-279.24867532 1.08659937 -257.08200597 1.09207852 -234.91533327 1.09408849 C-222.50739061 1.09532174 -210.09945366 1.09824042 -197.69151306 1.10573006 C-127.42726326 1.15312322 -127.42726326 1.15312322 -57.1687851 0.35076237 C-38.10971764 0.01962662 -19.06138114 -0.05698813 0 0 Z " fill="#AEB2B6" transform="translate(1999,2117)"/>
<path d="M0 0 C1.73942619 0.00128403 1.73942619 0.00128403 3.51399231 0.00259399 C17.13434638 0.01344264 30.75467455 0.03258535 44.375 0.0625 C44.375 0.3925 44.375 0.7225 44.375 1.0625 C31.64686324 1.43821829 18.9176628 1.7636286 6.1875 2.0625 C4.6712245 2.09813175 4.6712245 2.09813175 3.12431717 2.13448334 C-44.97686853 3.24745047 -93.07624224 3.23198646 -141.1875 3.1875 C-142.13201255 3.18665154 -143.07652511 3.18580307 -144.04965925 3.18492889 C-168.5748111 3.16252873 -193.09991026 3.12191783 -217.625 3.0625 C-217.625 2.4025 -217.625 1.7425 -217.625 1.0625 C-194.20838322 0.88863557 -170.79171536 0.72252652 -147.375 0.5625 C-146.07124467 0.55357719 -146.07124467 0.55357719 -144.74115086 0.54447412 C-96.49379801 0.2147307 -48.2486362 -0.03588593 0 0 Z " fill="#7F7E7E" transform="translate(1797.625,2037.9375)"/>
<path d="M0 0 C1.09991776 0.03536362 2.19983551 0.07072723 3.33308411 0.10716248 C13.87363807 0.44597086 24.41421341 0.78410752 34.95480824 1.12164211 C40.36937791 1.29504945 45.78394068 1.46866626 51.19848633 1.64282227 C77.13104846 2.47676302 103.06384494 3.28555781 129 4 C129 4.33 129 4.66 129 5 C86.1 5 43.2 5 -1 5 C-0.67 3.35 -0.34 1.7 0 0 Z " fill="#74767C" transform="translate(1680,1987)"/>
<path d="M0 0 C0.495 1.485 0.495 1.485 1 3 C-15.9978166 4.00121313 -32.97054457 4.15737311 -49.99121094 4.13037109 C-53.6801566 4.12459955 -57.36903064 4.12801789 -61.05797386 4.13394356 C-63.94058773 4.13756723 -66.82318472 4.13640356 -69.7057991 4.13381577 C-71.71974994 4.13283855 -73.73370147 4.13583809 -75.74765015 4.13894653 C-81.92615218 4.12310928 -87.8935258 3.96518906 -94 3 C-94 2.34 -94 1.68 -94 1 C-92.95509903 1.00222061 -91.91019806 1.00444122 -90.83363342 1.00672913 C-80.96190564 1.02704569 -71.09018213 1.04201308 -61.21843815 1.05181217 C-56.14390755 1.0570194 -51.0693939 1.06407767 -45.99487305 1.07543945 C-41.0930356 1.08634528 -36.19121441 1.09229309 -31.28936577 1.09487724 C-29.42398256 1.09671766 -27.5586002 1.10031144 -25.69322395 1.10573006 C-23.0702844 1.11304274 -20.44741108 1.11398666 -17.82446289 1.11352539 C-16.68077995 1.1189183 -16.68077995 1.1189183 -15.51399231 1.12442017 C-10.27569477 1.11452304 -5.19877433 0.64898541 0 0 Z " fill="#B0B6BE" transform="translate(1847,1857)"/>
</svg>
