<?xml version="1.0" encoding="UTF-8"?>
<svg version="1.1" xmlns="http://www.w3.org/2000/svg" width="5000" height="3750">
<path d="M0 0 C0 1.32 0 2.64 0 4 C0.99 4.33 1.98 4.66 3 5 C3 6.32 3 7.64 3 9 C3.66 9 4.32 9 5 9 C5.33 10.65 5.66 12.3 6 14 C6.66 14 7.32 14 8 14 C9.41377341 16.63904371 10.37240135 19.07120629 11 22 C11.66 22 12.32 22 13 22 C13 23.65 13 25.3 13 27 C13.99 27 14.98 27 16 27 C16.185625 28.2065625 16.185625 28.2065625 16.375 29.4375 C16.58125 30.283125 16.7875 31.12875 17 32 C17.66 32.33 18.32 32.66 19 33 C18.67 33.66 18.34 34.32 18 35 C18.99 35 19.98 35 21 35 C21 36.65 21 38.3 21 40 C21.66 40 22.32 40 23 40 C23.33 41.65 23.66 43.3 24 45 C24.66 45 25.32 45 26 45 C26 45.99 26 46.98 26 48 C26.99 48 27.98 48 29 48 C29 49.65 29 51.3 29 53 C29.66 53 30.32 53 31 53 C31.33 54.65 31.66 56.3 32 58 C32.66 58 33.32 58 34 58 C34 58.99 34 59.98 34 61 C34.66 61 35.32 61 36 61 C36.33 62.65 36.66 64.3 37 66 C37.66 66 38.32 66 39 66 C39.33 67.65 39.66 69.3 40 71 C40.66 71 41.32 71 42 71 C42 71.99 42 72.98 42 74 C42.66 74 43.32 74 44 74 C44 75.65 44 77.3 44 79 C44.99 79 45.98 79 47 79 C47 80.65 47 82.3 47 84 C47.66 84 48.32 84 49 84 C50.625 85.1875 50.625 85.1875 52 87 C52.1875 89.6875 52.1875 89.6875 52 92 C52.99 92.33 53.98 92.66 55 93 C55 94.32 55 95.64 55 97 C55.66 97 56.32 97 57 97 C57 97.99 57 98.98 57 100 C57.99 100.33 58.98 100.66 60 101 C60 102.32 60 103.64 60 105 C60.66 105 61.32 105 62 105 C62.33 106.65 62.66 108.3 63 110 C63.66 110 64.32 110 65 110 C65.33 111.32 65.66 112.64 66 114 C66.66 114 67.32 114 68 114 C68 114.99 68 115.98 68 117 C68.66 117.33 69.32 117.66 70 118 C70 119.65 70 121.3 70 123 C70.99 123 71.98 123 73 123 C74.25664978 125.90600261 75 127.79604584 75 131 C75.99 131 76.98 131 78 131 C78 132.65 78 134.3 78 136 C78.66 136 79.32 136 80 136 C80.33 137.65 80.66 139.3 81 141 C81.66 141 82.32 141 83 141 C84.625 142.1875 84.625 142.1875 86 144 C86.1875 146.6875 86.1875 146.6875 86 149 C86.66 149 87.32 149 88 149 C88.33 150.65 88.66 152.3 89 154 C89.66 154 90.32 154 91 154 C91.45375 155.134375 91.9075 156.26875 92.375 157.4375 C93.57095806 161.04721692 93.57095806 161.04721692 96 162 C96 163.65 96 165.3 96 167 C96.66 167 97.32 167 98 167 C98 167.66 98 168.32 98 169 C98.66 169.33 99.32 169.66 100 170 C100.625 172.5625 100.625 172.5625 101 175 C101.99 175 102.98 175 104 175 C104 176.65 104 178.3 104 180 C104.66 180 105.32 180 106 180 C107.5078125 181.828125 107.5078125 181.828125 109.125 184.25 C109.66382812 185.03890625 110.20265625 185.8278125 110.7578125 186.640625 C112 189 112 189 112 193 C112.66 193 113.32 193 114 193 C114.28875 193.598125 114.5775 194.19625 114.875 194.8125 C116.04742026 197.19327792 116.04742026 197.19327792 118 200 C118.39013716 201.9896995 118.73202649 203.99019869 119 206 C119.99 206 120.98 206 122 206 C122 207.65 122 209.3 122 211 C122.66 211 123.32 211 124 211 C124 211.66 124 212.32 124 213 C124.66 213.33 125.32 213.66 126 214 C126.144375 214.66 126.28875 215.32 126.4375 216 C126.623125 216.66 126.80875 217.32 127 218 C127.99 218.33 128.98 218.66 130 219 C130 220.65 130 222.3 130 224 C130.66 224 131.32 224 132 224 C134.29648649 226.5614657 135 227.47967572 135 231 C135.66 231 136.32 231 137 231 C137.185625 232.2065625 137.185625 232.2065625 137.375 233.4375 C137.58125 234.283125 137.7875 235.12875 138 236 C138.66 236.33 139.32 236.66 140 237 C140 238.65 140 240.3 140 242 C140.66 242 141.32 242 142 242 C142 242.66 142 243.32 142 244 C142.66 244 143.32 244 144 244 C144.28875 244.804375 144.5775 245.60875 144.875 246.4375 C145.73262568 249.1326468 145.73262568 249.1326468 148 250 C148 251.65 148 253.3 148 255 C148.66 255 149.32 255 150 255 C152.29648649 257.5614657 153 258.47967572 153 262 C153.66 262 154.32 262 155 262 C155.185625 263.2065625 155.185625 263.2065625 155.375 264.4375 C155.58125 265.283125 155.7875 266.12875 156 267 C156.66 267.33 157.32 267.66 158 268 C158.144375 268.61875 158.28875 269.2375 158.4375 269.875 C158.82764307 272.06848204 158.82764307 272.06848204 160.4375 273.4375 C162.39920079 275.39920079 162.99077977 277.44330874 164 280 C164.66 280.33 165.32 280.66 166 281 C166 282.65 166 284.3 166 286 C166.66 286 167.32 286 168 286 C168.33 287.65 168.66 289.3 169 291 C169.66 291 170.32 291 171 291 C171 291.66 171 292.32 171 293 C171.66 293 172.32 293 173 293 C173.33 294.98 173.66 296.96 174 299 C174.66 299 175.32 299 176 299 C176.1546875 299.8971875 176.1546875 299.8971875 176.3125 300.8125 C176.81996906 303.0653009 176.81996906 303.0653009 178.5 304.375 C180.63927399 306.69254683 180.659511 308.93559899 181 312 C181.99 312 182.98 312 184 312 C184 313.65 184 315.3 184 317 C184.66 317 185.32 317 186 317 C186.33 318.65 186.66 320.3 187 322 C187.66 322 188.32 322 189 322 C190.625 323.1875 190.625 323.1875 192 325 C192.1875 327.6875 192.1875 327.6875 192 330 C192.66 330 193.32 330 194 330 C194.1546875 330.8971875 194.1546875 330.8971875 194.3125 331.8125 C194.83135614 334.05300235 194.83135614 334.05300235 196.4375 335.4375 C198.39920079 337.39920079 198.99077977 339.44330874 200 342 C200.66 342.33 201.32 342.66 202 343 C202 344.65 202 346.3 202 348 C202.99 348.33 203.98 348.66 205 349 C205 350.32 205 351.64 205 353 C205.66 353 206.32 353 207 353 C207.33 354.32 207.66 355.64 208 357 C208.66 357 209.32 357 210 357 C210 358.32 210 359.64 210 361 C210.66 361 211.32 361 212 361 C212.185625 361.9590625 212.185625 361.9590625 212.375 362.9375 C212.58125 363.618125 212.7875 364.29875 213 365 C213.66 365.33 214.32 365.66 215 366 C216 368.33333333 217 370.66666667 218 373 C218.66 373.33 219.32 373.66 220 374 C220 375.65 220 377.3 220 379 C220.99 379 221.98 379 223 379 C223 380.65 223 382.3 223 384 C223.66 384 224.32 384 225 384 C226.41377341 386.63904371 227.37240135 389.07120629 228 392 C228.66 392 229.32 392 230 392 C230.185625 392.9590625 230.185625 392.9590625 230.375 393.9375 C230.58125 394.618125 230.7875 395.29875 231 396 C231.66 396.33 232.32 396.66 233 397 C233 398.65 233 400.3 233 402 C233.99 402.33 234.98 402.66 236 403 C237.64820195 405.60242414 238 406.86248779 238 410 C238.99 410 239.98 410 241 410 C241 411.65 241 413.3 241 415 C241.66 415 242.32 415 243 415 C243.33 416.65 243.66 418.3 244 420 C244.66 420 245.32 420 246 420 C246.680625 421.423125 246.680625 421.423125 247.375 422.875 C248.80238254 426.00313679 248.80238254 426.00313679 251 428 C251.125 430.625 251.125 430.625 251 433 C251.99 433 252.98 433 254 433 C254 434.65 254 436.3 254 438 C254.66 438 255.32 438 256 438 C256 438.99 256 439.98 256 441 C256.99 441 257.98 441 259 441 C259 442.65 259 444.3 259 446 C259.66 446 260.32 446 261 446 C261.33 447.65 261.66 449.3 262 451 C262.66 451 263.32 451 264 451 C264 452.65 264 454.3 264 456 C264.99 456.33 265.98 456.66 267 457 C269 459 269 459 269.125 461.625 C269.08375 462.40875 269.0425 463.1925 269 464 C269.99 464 270.98 464 272 464 C272 465.65 272 467.3 272 469 C272.66 469 273.32 469 274 469 C274.33 470.65 274.66 472.3 275 474 C275.66 474 276.32 474 277 474 C277 474.99 277 475.98 277 477 C277.66 477 278.32 477 279 477 C279.33 478.65 279.66 480.3 280 482 C280.66 482 281.32 482 282 482 C282 483.65 282 485.3 282 487 C282.99 487 283.98 487 285 487 C285 488.65 285 490.3 285 492 C285.66 492 286.32 492 287 492 C287 492.99 287 493.98 287 495 C287.99 495 288.98 495 290 495 C290 496.65 290 498.3 290 500 C290.66 500 291.32 500 292 500 C292.33 501.65 292.66 503.3 293 505 C293.66 505 294.32 505 295 505 C295.185625 505.9590625 295.185625 505.9590625 295.375 506.9375 C295.58125 507.618125 295.7875 508.29875 296 509 C296.66 509.33 297.32 509.66 298 510 C298 510.99 298 511.98 298 513 C298.66 513 299.32 513 300 513 C300 514.65 300 516.3 300 518 C300.99 518 301.98 518 303 518 C303.268125 518.9075 303.53625 519.815 303.8125 520.75 C304.90675495 523.74480303 306.10795583 525.50594178 308 528 C308 528.99 308 529.98 308 531 C308.99 531.495 308.99 531.495 310 532 C310.33 532.99 310.66 533.98 311 535 C311.99 535.495 311.99 535.495 313 536 C313.33333333 537.66666667 313.66666667 539.33333333 314 541 C314.99 541.495 314.99 541.495 316 542 C316 543.65 316 545.3 316 547 C316.66 547 317.32 547 318 547 C318 547.66 318 548.32 318 549 C318.99 549.495 318.99 549.495 320 550 C320.625 552.5625 320.625 552.5625 321 555 C321.99 555.33 322.98 555.66 324 556 C324 557.32 324 558.64 324 560 C324.66 560 325.32 560 326 560 C326 560.66 326 561.32 326 562 C326.99 562 327.98 562 329 562 C329.125 567.75 329.125 567.75 328 570 C326.35 569.67 324.7 569.34 323 569 C323 569.33 323 569.66 323 570 C322.18282501 570.01030746 321.36565002 570.02061493 320.52371216 570.03123474 C312.78607041 570.12960683 305.04850058 570.23217395 297.31097603 570.33933926 C293.33397069 570.39427617 289.35695772 570.44764591 285.37988281 570.49731445 C281.53485262 570.54539359 277.68990128 570.59774564 273.84496689 570.65294075 C272.38514063 570.67316902 270.92529292 570.69191151 269.4654274 570.70907402 C261.6007794 570.80254576 253.81186842 571.00974368 246 572 C246 572.33 246 572.66 246 573 C206.4 573 166.8 573 126 573 C126 572.34 126 571.68 126 571 C124.71834961 571.00636475 123.43669922 571.01272949 122.11621094 571.01928711 C117.35971158 571.03372009 112.60442115 571.00240351 107.84814453 570.95727539 C105.78991813 570.94413778 103.73157364 570.94339947 101.67333984 570.95532227 C98.71333211 570.97031507 95.75661306 570.94068745 92.796875 570.90234375 C91.87694763 570.91659897 90.95702026 570.93085419 90.00921631 570.94554138 C87.4851405 570.88837204 85.40336291 570.77710769 83 570 C80.91604118 567.78622914 80.20042733 565.88152932 79 563 C78.34 562.01 77.68 561.02 77 560 C77 559.34 77 558.68 77 558 C76.34 557.67 75.68 557.34 75 557 C75 556.34 75 555.68 75 555 C74.34 554.67 73.68 554.34 73 554 C73 552.35 73 550.7 73 549 C72.01 549 71.02 549 70 549 C70 547.35 70 545.7 70 544 C69.34 544 68.68 544 68 544 C67.67 542.35 67.34 540.7 67 539 C66.34 539 65.68 539 65 539 C63.74335022 536.09399739 63 534.20395416 63 531 C62.01 531 61.02 531 60 531 C60 529.35 60 527.7 60 526 C59.34 526 58.68 526 58 526 C57.67 524.35 57.34 522.7 57 521 C56.34 521 55.68 521 55 521 C53.58622659 518.36095629 52.62759865 515.92879371 52 513 C51.34 513 50.68 513 50 513 C50 511.35 50 509.7 50 508 C49.01 508 48.02 508 47 508 C47 506.35 47 504.7 47 503 C46.01 502.67 45.02 502.34 44 502 C44.33 501.34 44.66 500.68 45 500 C44.01 500 43.02 500 42 500 C42 498.35 42 496.7 42 495 C41.01 494.67 40.02 494.34 39 494 C39 492.68 39 491.36 39 490 C38.34 490 37.68 490 37 490 C35.58622659 487.36095629 34.62759865 484.92879371 34 482 C33.34 482 32.68 482 32 482 C31.67 480.35 31.34 478.7 31 477 C30.34 477 29.68 477 29 477 C27.79371992 474.66785852 26.8345262 472.50357861 26 470 C25.34 469.67 24.68 469.34 24 469 C24 467.35 24 465.7 24 464 C23.01 464 22.02 464 21 464 C19.23537317 460.91190305 19 459.76687864 19 456 C18.01 456 17.02 456 16 456 C15.54625 454.865625 15.0925 453.73125 14.625 452.5625 C13.42904194 448.95278308 13.42904194 448.95278308 11 448 C11 446.35 11 444.7 11 443 C10.0409375 442.6596875 10.0409375 442.6596875 9.0625 442.3125 C7 441 7 441 6.25 438.375 C6.12625 437.199375 6.12625 437.199375 6 436 C5.01 435.67 4.02 435.34 3 435 C1.8125 431.4375 1.8125 431.4375 1 428 C0.01 428 -0.98 428 -2 428 C-2 426.35 -2 424.7 -2 423 C-5.62690383 421.79103206 -6.37309617 421.79103206 -10 423 C-10 424.65 -10 426.3 -10 428 C-10.99 428 -11.98 428 -13 428 C-12.67 428.99 -12.34 429.98 -12 431 C-12.33 431.66 -12.66 432.32 -13 433 C-13.66 433 -14.32 433 -15 433 C-15 433.99 -15 434.98 -15 436 C-15.66 436 -16.32 436 -17 436 C-17.33 437.65 -17.66 439.3 -18 441 C-18.66 441 -19.32 441 -20 441 C-20 442.65 -20 444.3 -20 446 C-20.99 446 -21.98 446 -23 446 C-23.33 447.65 -23.66 449.3 -24 451 C-24.66 451 -25.32 451 -26 451 C-25.67 451.99 -25.34 452.98 -25 454 C-25.99 454 -26.98 454 -28 454 C-28 455.65 -28 457.3 -28 459 C-28.99 459 -29.98 459 -31 459 C-31 460.65 -31 462.3 -31 464 C-31.66 464 -32.32 464 -33 464 C-33 464.99 -33 465.98 -33 467 C-33.66 467 -34.32 467 -35 467 C-35.33 468.65 -35.66 470.3 -36 472 C-36.66 472 -37.32 472 -38 472 C-38.33 473.65 -38.66 475.3 -39 477 C-39.66 477 -40.32 477 -41 477 C-41 477.99 -41 478.98 -41 480 C-41.66 480 -42.32 480 -43 480 C-43.33 481.65 -43.66 483.3 -44 485 C-44.66 485 -45.32 485 -46 485 C-46 486.65 -46 488.3 -46 490 C-46.99 490 -47.98 490 -49 490 C-49.144375 490.763125 -49.28875 491.52625 -49.4375 492.3125 C-50 495 -50 495 -51 498 C-51.99 498 -52.98 498 -54 498 C-54 499.65 -54 501.3 -54 503 C-54.99 503 -55.98 503 -57 503 C-56.67 503.99 -56.34 504.98 -56 506 C-56.33 506.66 -56.66 507.32 -57 508 C-57.66 508 -58.32 508 -59 508 C-59 508.99 -59 509.98 -59 511 C-59.66 511 -60.32 511 -61 511 C-61.33 512.65 -61.66 514.3 -62 516 C-62.66 516 -63.32 516 -64 516 C-64 517.65 -64 519.3 -64 521 C-64.99 521 -65.98 521 -67 521 C-67.144375 521.763125 -67.28875 522.52625 -67.4375 523.3125 C-68 526 -68 526 -69 529 C-69.99 529 -70.98 529 -72 529 C-72 530.65 -72 532.3 -72 534 C-72.99 534 -73.98 534 -75 534 C-75 535.65 -75 537.3 -75 539 C-75.66 539 -76.32 539 -77 539 C-77 539.99 -77 540.98 -77 542 C-77.66 542 -78.32 542 -79 542 C-79.33 543.65 -79.66 545.3 -80 547 C-80.66 547 -81.32 547 -82 547 C-82.33 548.65 -82.66 550.3 -83 552 C-83.66 552 -84.32 552 -85 552 C-85 552.99 -85 553.98 -85 555 C-85.66 555 -86.32 555 -87 555 C-87.33 556.65 -87.66 558.3 -88 560 C-88.66 560 -89.32 560 -90 560 C-90 561.65 -90 563.3 -90 565 C-90.99 565 -91.98 565 -93 565 C-93 566.65 -93 568.3 -93 570 C-93.66 570 -94.32 570 -95 570 C-95 570.99 -95 571.98 -95 573 C-95.99 573 -96.98 573 -98 573 C-98 574.65 -98 576.3 -98 578 C-98.66 578 -99.32 578 -100 578 C-100.33 579.65 -100.66 581.3 -101 583 C-101.66 583 -102.32 583 -103 583 C-103 583.99 -103 584.98 -103 586 C-103.66 586 -104.32 586 -105 586 C-105.33 587.65 -105.66 589.3 -106 591 C-106.66 591 -107.32 591 -108 591 C-108 592.65 -108 594.3 -108 596 C-108.99 596 -109.98 596 -111 596 C-110.95875 596.78375 -110.9175 597.5675 -110.875 598.375 C-111 601 -111 601 -113 603 C-113.99 603.33 -114.98 603.66 -116 604 C-116 605.65 -116 607.3 -116 609 C-116.66 609.33 -117.32 609.66 -118 610 C-118.65213292 612.02463255 -118.65213292 612.02463255 -119 614 C-119.66 614 -120.32 614 -121 614 C-121 614.99 -121 615.98 -121 617 C-121.66 617 -122.32 617 -123 617 C-123.33 618.65 -123.66 620.3 -124 622 C-124.66 622 -125.32 622 -126 622 C-126 623.65 -126 625.3 -126 627 C-126.99 627 -127.98 627 -129 627 C-129 628.65 -129 630.3 -129 632 C-129.99 632 -130.98 632 -132 632 C-131.67 632.99 -131.34 633.98 -131 635 C-131.99 635 -132.98 635 -134 635 C-134 636.65 -134 638.3 -134 640 C-134.99 640 -135.98 640 -137 640 C-137 641.65 -137 643.3 -137 645 C-137.66 645 -138.32 645 -139 645 C-139.12375 645.5775 -139.2475 646.155 -139.375 646.75 C-140.00648824 649.02335767 -140.88858191 650.9253529 -142 653 C-142.66 653 -143.32 653 -144 653 C-144.33 654.65 -144.66 656.3 -145 658 C-145.66 658 -146.32 658 -147 658 C-147 659.65 -147 661.3 -147 663 C-147.99 663 -148.98 663 -150 663 C-150 663.99 -150 664.98 -150 666 C-150.66 666 -151.32 666 -152 666 C-152 667.65 -152 669.3 -152 671 C-152.99 671 -153.98 671 -155 671 C-155 672.65 -155 674.3 -155 676 C-155.66 676 -156.32 676 -157 676 C-157.33 677.65 -157.66 679.3 -158 681 C-158.66 681 -159.32 681 -160 681 C-160 681.99 -160 682.98 -160 684 C-160.66 684 -161.32 684 -162 684 C-162.33 685.65 -162.66 687.3 -163 689 C-163.66 689 -164.32 689 -165 689 C-165 690.65 -165 692.3 -165 694 C-165.99 694 -166.98 694 -168 694 C-168.144375 694.763125 -168.28875 695.52625 -168.4375 696.3125 C-169 699 -169 699 -170 702 C-170.99 702 -171.98 702 -173 702 C-173 703.65 -173 705.3 -173 707 C-173.66 707 -174.32 707 -175 707 C-175.33 708.65 -175.66 710.3 -176 712 C-176.66 712 -177.32 712 -178 712 C-178 712.99 -178 713.98 -178 715 C-178.66 715 -179.32 715 -180 715 C-180.33 716.65 -180.66 718.3 -181 720 C-181.66 720 -182.32 720 -183 720 C-183 721.65 -183 723.3 -183 725 C-183.99 725 -184.98 725 -186 725 C-185.95875 725.78375 -185.9175 726.5675 -185.875 727.375 C-186.04231119 730.88853494 -187.5797915 731.5797915 -190 734 C-190.6425235 736.06874034 -190.6425235 736.06874034 -191 738 C-191.66 738 -192.32 738 -193 738 C-193.33 739.65 -193.66 741.3 -194 743 C-194.66 743 -195.32 743 -196 743 C-196 744.32 -196 745.64 -196 747 C-196.66 747.33 -197.32 747.66 -198 748 C-198.33 748.99 -198.66 749.98 -199 751 C-199.66 751 -200.32 751 -201 751 C-201 752.65 -201 754.3 -201 756 C-201.99 756 -202.98 756 -204 756 C-203.95875 756.78375 -203.9175 757.5675 -203.875 758.375 C-204 761 -204 761 -206 763 C-206.33 763.66 -206.66 764.32 -207 765 C-207.66666667 766.33333333 -208.33333333 767.66666667 -209 769 C-209.66 769 -210.32 769 -211 769 C-211.33 770.65 -211.66 772.3 -212 774 C-212.66 774 -213.32 774 -214 774 C-214 775.65 -214 777.3 -214 779 C-214.99 779 -215.98 779 -217 779 C-217 779.99 -217 780.98 -217 782 C-217.66 782 -218.32 782 -219 782 C-219 783.65 -219 785.3 -219 787 C-219.99 787 -220.98 787 -222 787 C-221.95875 787.78375 -221.9175 788.5675 -221.875 789.375 C-222 792 -222 792 -224 794 C-224.33 794.99 -224.66 795.98 -225 797 C-225.66 797 -226.32 797 -227 797 C-227 797.99 -227 798.98 -227 800 C-227.66 800 -228.32 800 -229 800 C-229.33 801.65 -229.66 803.3 -230 805 C-230.66 805 -231.32 805 -232 805 C-232 806.65 -232 808.3 -232 810 C-232.99 810 -233.98 810 -235 810 C-235.103125 810.7425 -235.20625 811.485 -235.3125 812.25 C-236.05269611 815.21078443 -237.15719597 816.61971146 -239 819 C-239.34227417 820.33106622 -239.67751743 821.66400079 -240 823 C-240.66 823.33 -241.32 823.66 -242 824 C-242.65213292 826.02463255 -242.65213292 826.02463255 -243 828 C-243.66 828 -244.32 828 -245 828 C-245 829.32 -245 830.64 -245 832 C-245.66 832 -246.32 832 -247 832 C-247.33 833.32 -247.66 834.64 -248 836 C-248.66 836 -249.32 836 -250 836 C-250.33 837.65 -250.66 839.3 -251 841 C-251.66 841 -252.32 841 -253 841 C-253 842.65 -253 844.3 -253 846 C-253.99 846.33 -254.98 846.66 -256 847 C-255.67 847.99 -255.34 848.98 -255 850 C-255.66 850 -256.32 850 -257 850 C-257.12375 850.61875 -257.2475 851.2375 -257.375 851.875 C-258 854 -258 854 -260 856 C-260.75214998 857.5207704 -261.45667412 859.06557295 -262.125 860.625 C-262.47820313 861.44226562 -262.83140625 862.25953125 -263.1953125 863.1015625 C-263.46085937 863.72804688 -263.72640625 864.35453125 -264 865 C-264.66 865 -265.32 865 -266 865 C-266 865.99 -266 866.98 -266 868 C-266.66 868 -267.32 868 -268 868 C-268.99 871.3 -269.98 874.6 -271 878 C-271.99 878 -272.98 878 -274 878 C-274 879.65 -274 881.3 -274 883 C-274.66 883 -275.32 883 -276 883 C-276.12375 883.5775 -276.2475 884.155 -276.375 884.75 C-277.00648824 887.02335767 -277.88858191 888.9253529 -279 891 C-279.66 891 -280.32 891 -281 891 C-281.33 892.65 -281.66 894.3 -282 896 C-282.66 896 -283.32 896 -284 896 C-284 897.65 -284 899.3 -284 901 C-284.99 901 -285.98 901 -287 901 C-287 901.99 -287 902.98 -287 904 C-287.66 904 -288.32 904 -289 904 C-289 905.65 -289 907.3 -289 909 C-289.99 909 -290.98 909 -292 909 C-292 910.65 -292 912.3 -292 914 C-292.66 914 -293.32 914 -294 914 C-294.33 915.65 -294.66 917.3 -295 919 C-295.66 919 -296.32 919 -297 919 C-297 919.99 -297 920.98 -297 922 C-297.66 922 -298.32 922 -299 922 C-299 923.65 -299 925.3 -299 927 C-299.99 927 -300.98 927 -302 927 C-302 928.65 -302 930.3 -302 932 C-302.99 932 -303.98 932 -305 932 C-305 933.65 -305 935.3 -305 937 C-305.66 937 -306.32 937 -307 937 C-307 937.99 -307 938.98 -307 940 C-307.66 940 -308.32 940 -309 940 C-309.33 941.65 -309.66 943.3 -310 945 C-310.66 945 -311.32 945 -312 945 C-312.33 946.65 -312.66 948.3 -313 950 C-313.66 950 -314.32 950 -315 950 C-315 951.65 -315 953.3 -315 955 C-315.99 955 -316.98 955 -318 955 C-318.144375 955.5775 -318.28875 956.155 -318.4375 956.75 C-318.95833333 958.83333333 -319.47916667 960.91666667 -320 963 C-320.99 963 -321.98 963 -323 963 C-323 964.65 -323 966.3 -323 968 C-323.66 968 -324.32 968 -325 968 C-325.33 969.65 -325.66 971.3 -326 973 C-326.66 973 -327.32 973 -328 973 C-328 973.99 -328 974.98 -328 976 C-328.66 976 -329.32 976 -330 976 C-330.33 977.65 -330.66 979.3 -331 981 C-331.66 981 -332.32 981 -333 981 C-333 982.65 -333 984.3 -333 986 C-333.99 986 -334.98 986 -336 986 C-336 987.65 -336 989.3 -336 991 C-336.66 991 -337.32 991 -338 991 C-338.12375 991.5775 -338.2475 992.155 -338.375 992.75 C-339.00648824 995.02335767 -339.88858191 996.9253529 -341 999 C-341.66 999 -342.32 999 -343 999 C-343.33 1000.65 -343.66 1002.3 -344 1004 C-344.66 1004 -345.32 1004 -346 1004 C-346 1005.65 -346 1007.3 -346 1009 C-346.99 1009 -347.98 1009 -349 1009 C-349.103125 1009.9075 -349.20625 1010.815 -349.3125 1011.75 C-350.01677494 1015.07929974 -350.87905428 1016.43719059 -353 1019 C-353.33 1019.99 -353.66 1020.98 -354 1022 C-354.66 1022 -355.32 1022 -356 1022 C-356 1023.65 -356 1025.3 -356 1027 C-356.99 1027.33 -357.98 1027.66 -359 1028 C-359 1028.66 -359 1029.32 -359 1030 C-304.25530565 1029.92172034 -249.5106131 1029.84226622 -194.76593018 1029.7563324 C-193.95557804 1029.75506072 -193.1452259 1029.75378904 -192.31031763 1029.75247882 C-174.69881016 1029.7248339 -157.08730304 1029.69697083 -139.47579627 1029.66888306 C-130.83900747 1029.65510998 -122.2022186 1029.64138509 -113.56542969 1029.62768555 C-112.7059694 1029.62632146 -111.84650912 1029.62495738 -110.96100459 1029.62355196 C-83.10784331 1029.57936769 -55.25467846 1029.53836584 -27.40150997 1029.49901587 C1.22333726 1029.45855889 29.84817784 1029.41488818 58.47301394 1029.36717889 C62.51688829 1029.36044042 66.5607627 1029.35373866 70.60463715 1029.34705925 C71.79846555 1029.34508566 71.79846555 1029.34508566 73.01641169 1029.3430722 C85.8234199 1029.32199451 98.63043064 1029.30430048 111.43744556 1029.28787469 C124.31556503 1029.27128539 137.193675 1029.25112447 150.07178321 1029.22733159 C157.72108673 1029.21330732 165.3703829 1029.20200777 173.01969578 1029.19463562 C178.73519432 1029.18882524 184.45067395 1029.17788349 190.16616043 1029.1649667 C192.47591186 1029.16054311 194.78566718 1029.15777419 197.09542266 1029.15683801 C211.91721873 1029.21269142 211.91721873 1029.21269142 226.6966365 1028.22798151 C230.85866843 1027.81603337 235.02957895 1027.83090614 239.20874023 1027.81054688 C240.15211746 1027.80225357 241.09549469 1027.79396027 242.06745911 1027.78541565 C244.09378432 1027.76817318 246.12012771 1027.75296522 248.14648247 1027.73963928 C251.37513281 1027.71831044 254.60369474 1027.69131141 257.83229065 1027.66296387 C264.70065812 1027.60366734 271.56906968 1027.5514178 278.4375 1027.5 C286.37725335 1027.44026053 294.31696387 1027.3774729 302.25663948 1027.30812073 C305.39840881 1027.28206028 308.54018388 1027.26093518 311.68199158 1027.2401123 C324.47663173 1027.13937405 337.22462832 1026.70825096 350 1026 C348.98379995 1022.95139986 348.22608429 1022.13333078 346 1020 C345.67 1019.34 345.34 1018.68 345 1018 C344.484375 1017.401875 343.96875 1016.80375 343.4375 1016.1875 C341.72164549 1013.57641706 341.74475738 1012.0629114 342 1009 C341.01 1009 340.02 1009 339 1009 C339 1007.35 339 1005.7 339 1004 C338.34 1004 337.68 1004 337 1004 C336.67 1002.68 336.34 1001.36 336 1000 C335.34 1000 334.68 1000 334 1000 C331.56839395 996.63316085 331 995.26649636 331 991 C330.34 991 329.68 991 329 991 C326.70351351 988.4385343 326 987.52032428 326 984 C325.34 984 324.68 984 324 984 C323.87625 983.195625 323.7525 982.39125 323.625 981.5625 C323.41875 980.716875 323.2125 979.87125 323 979 C322.34 978.67 321.68 978.34 321 978 C320.26924352 975.6859378 319.59861742 973.35171131 319 971 C318.01 971 317.02 971 316 971 C315.5978125 969.6696875 315.5978125 969.6696875 315.1875 968.3125 C314.0819322 965.2285477 312.69898404 962.7801557 311 960 C311 959.34 311 958.68 311 958 C310.01 958 309.02 958 308 958 C308 956.35 308 954.7 308 953 C307.34 953 306.68 953 306 953 C305.67 951.35 305.34 949.7 305 948 C304.34 948 303.68 948 303 948 C303 947.01 303 946.02 303 945 C302.34 945 301.68 945 301 945 C300.67 943.35 300.34 941.7 300 940 C299.34 940 298.68 940 298 940 C297.67 938.35 297.34 936.7 297 935 C296.34 935 295.68 935 295 935 C295 934.01 295 933.02 295 932 C294.34 932 293.68 932 293 932 C292.814375 931.0409375 292.814375 931.0409375 292.625 930.0625 C292.41875 929.381875 292.2125 928.70125 292 928 C291.34 927.67 290.68 927.34 290 927 C290 926.01 290 925.02 290 924 C289.34 924 288.68 924 288 924 C287.814375 923.0409375 287.814375 923.0409375 287.625 922.0625 C287.41875 921.381875 287.2125 920.70125 287 920 C286.34 919.67 285.68 919.34 285 919 C284.65657551 917.66923011 284.32380126 916.33568021 284 915 C283.34 914.34 282.68 913.68 282 913 C282 912.67 282 912.34 282 912 C269.13 911.67 256.26 911.34 243 911 C243 910.34 243 909.68 243 909 C223.82405454 909.10730062 204.64814869 909.22007301 185.47227383 909.33933926 C176.56836169 909.39459078 167.66444554 909.44805937 158.76049805 909.49731445 C150.99880673 909.54025531 143.23714394 909.586558 135.47549683 909.63687855 C131.36670948 909.66339987 127.25792749 909.68825063 123.14910698 909.70907402 C119.27909297 909.7287403 115.40913287 909.75291311 111.5391674 909.78049088 C110.12145472 909.78980864 108.70373025 909.79750255 107.2859993 909.80341911 C105.34412004 909.81177058 103.4022721 909.82663456 101.46043396 909.84178162 C99.83300845 909.85146044 99.83300845 909.85146044 98.17270565 909.8613348 C94.95342913 909.94746183 94.95342913 909.94746183 91.61262989 910.50111103 C87.63518076 911.05038 83.74266787 911.14513045 79.73748779 911.14044189 C78.53112698 911.14489858 78.53112698 911.14489858 77.30039525 911.1494453 C74.62050017 911.15807869 71.94065004 911.15963592 69.26074219 911.16113281 C67.33356634 911.16576445 65.40639141 911.17078957 63.47921753 911.17617798 C58.25645702 911.18926275 53.03370934 911.19573819 47.81093502 911.20018864 C44.54895544 911.20312313 41.28697935 911.20722845 38.02500153 911.21169281 C27.82096904 911.2253517 17.61694454 911.23502863 7.41290355 911.2388947 C-4.37201234 911.24338448 -16.15681278 911.26098164 -27.94169354 911.2898953 C-37.05178735 911.31147297 -46.16184855 911.32159673 -55.27196765 911.32293582 C-60.71414557 911.32398581 -66.15621472 911.32993594 -71.59836578 911.34775543 C-76.71031792 911.3641705 -81.82207868 911.36642377 -86.9340477 911.35761642 C-88.81304053 911.35684276 -90.69204338 911.3612318 -92.57101059 911.37107468 C-95.12937924 911.38369457 -97.68705955 911.37797247 -100.24542236 911.36749268 C-100.99453487 911.37554908 -101.74364737 911.38360548 -102.51546025 911.39190602 C-107.51554128 911.34376215 -107.51554128 911.34376215 -109.96635056 909.60471725 C-111.90604092 906.59339208 -111.17108234 903.47867432 -111 900 C-110.34 900 -109.68 900 -109 900 C-108.896875 899.401875 -108.79375 898.80375 -108.6875 898.1875 C-107.89330939 895.66052987 -106.84722959 894.84722959 -105 893 C-104.32650839 891.33607955 -103.6590841 889.66967972 -103 888 C-102.34 887.67 -101.68 887.34 -101 887 C-100.34786708 884.97536745 -100.34786708 884.97536745 -100 883 C-99.34 883 -98.68 883 -98 883 C-98 881.35 -98 879.7 -98 878 C-97.01 878 -96.02 878 -95 878 C-95 877.01 -95 876.02 -95 875 C-94.34 875 -93.68 875 -93 875 C-92.67 873.35 -92.34 871.7 -92 870 C-91.34 870 -90.68 870 -90 870 C-90 868.35 -90 866.7 -90 865 C-89.01 865 -88.02 865 -87 865 C-86.855625 864.4225 -86.71125 863.845 -86.5625 863.25 C-86.04166667 861.16666667 -85.52083333 859.08333333 -85 857 C-84.01 857 -83.02 857 -82 857 C-82 855.35 -82 853.7 -82 852 C-81.34 852 -80.68 852 -80 852 C-79.67 850.35 -79.34 848.7 -79 847 C-78.34 847 -77.68 847 -77 847 C-77 846.01 -77 845.02 -77 844 C-76.34 844 -75.68 844 -75 844 C-74.67 842.35 -74.34 840.7 -74 839 C-73.34 839 -72.68 839 -72 839 C-72 837.35 -72 835.7 -72 834 C-71.01 834 -70.02 834 -69 834 C-68.855625 833.4225 -68.71125 832.845 -68.5625 832.25 C-67.78125 829.125 -67.78125 829.125 -67 826 C-66.01 826 -65.02 826 -64 826 C-64.04125 825.21625 -64.0825 824.4325 -64.125 823.625 C-64 821 -64 821 -62 819 C-61.67 818.01 -61.34 817.02 -61 816 C-60.34 816 -59.68 816 -59 816 C-59 815.01 -59 814.02 -59 813 C-58.34 813 -57.68 813 -57 813 C-56.67 811.35 -56.34 809.7 -56 808 C-55.34 808 -54.68 808 -54 808 C-54 806.35 -54 804.7 -54 803 C-53.01 803 -52.02 803 -51 803 C-50.855625 802.4225 -50.71125 801.845 -50.5625 801.25 C-49.78125 798.125 -49.78125 798.125 -49 795 C-48.01 795 -47.02 795 -46 795 C-46 793.35 -46 791.7 -46 790 C-45.01 790 -44.02 790 -43 790 C-43 788.35 -43 786.7 -43 785 C-42.34 785 -41.68 785 -41 785 C-41 784.01 -41 783.02 -41 782 C-40.34 781.34 -39.68 780.68 -39 780 C-38.67 779.01 -38.34 778.02 -38 777 C-37.34 777 -36.68 777 -36 777 C-35.67 775.35 -35.34 773.7 -35 772 C-34.34 772 -33.68 772 -33 772 C-33 769.36 -33 766.72 -33 764 C-32.01 763.67 -31.02 763.34 -30 763 C-29.67 762.34 -29.34 761.68 -29 761 C-28.01 761 -27.02 761 -26 761 C-25.67 758.69 -25.34 756.38 -25 754 C-24.34 754 -23.68 754 -23 754 C-23 752.35 -23 750.7 -23 749 C-22.01 748.67 -21.02 748.34 -20 748 C-20 746.35 -20 744.7 -20 743 C-19.34 743 -18.68 743 -18 743 C-17.67 741.35 -17.34 739.7 -17 738 C-16.34 738 -15.68 738 -15 738 C-15 736.35 -15 734.7 -15 733 C-14.01 733 -13.02 733 -12 733 C-12 732.01 -12 731.02 -12 730 C-11.34 730 -10.68 730 -10 730 C-10 728.35 -10 726.7 -10 725 C-9.01 725 -8.02 725 -7 725 C-6.814375 723.8553125 -6.814375 723.8553125 -6.625 722.6875 C-6 720 -6 720 -4 717 C-3.34 717 -2.68 717 -2 717 C-2 716.01 -2 715.02 -2 714 C-1.34 714 -0.68 714 0 714 C0.33 712.68 0.66 711.36 1 710 C1.66 710 2.32 710 3 710 C3 709.01 3 708.02 3 707 C3.99 707 4.98 707 6 707 C6.33 705.35 6.66 703.7 7 702 C7.55985596 701.98018066 8.11971191 701.96036133 8.6965332 701.93994141 C11.23565854 701.84462217 13.77396888 701.73497247 16.3125 701.625 C17.19357422 701.5940625 18.07464844 701.563125 18.98242188 701.53125 C20.25375977 701.47324219 20.25375977 701.47324219 21.55078125 701.4140625 C22.33106689 701.3826416 23.11135254 701.3512207 23.9152832 701.31884766 C26.30155768 701.10412111 26.30155768 701.10412111 29 699 C31.25222778 698.72825623 31.25222778 698.72825623 33.91455078 698.69702148 C35.41092575 698.67205849 35.41092575 698.67205849 36.93753052 698.64659119 C38.01259857 698.63817703 39.08766663 698.62976288 40.1953125 698.62109375 C41.29849823 698.60409927 42.40168396 698.5871048 43.53829956 698.56959534 C47.06714136 698.51638911 50.59597077 698.476125 54.125 698.4375 C57.66111067 698.39364015 61.19712782 698.34700544 64.73312378 698.29469299 C66.93546555 698.26262045 69.1378903 698.23576698 71.34036255 698.21446228 C72.33164154 698.20097244 73.32292053 698.1874826 74.34423828 698.17358398 C75.22121368 698.16407211 76.09818909 698.15456024 77.0017395 698.14476013 C78.99897181 698.21908403 78.99897181 698.21908403 80 697 C81.53701467 696.88254529 83.07926911 696.83272669 84.62060547 696.81054688 C85.60608368 696.79382935 86.59156189 696.77711182 87.60690308 696.7598877 C88.68279694 696.74631226 89.7586908 696.73273682 90.8671875 696.71875 C91.97168243 696.70034058 93.07617737 696.68193115 94.21414185 696.66296387 C97.76770509 696.60400849 101.32131952 696.55137041 104.875 696.5 C108.39296775 696.4483787 111.91087594 696.39523015 115.42874146 696.33703613 C117.62031042 696.30082135 119.81194464 696.2682969 122.00363159 696.2401123 C128.71034243 696.12986682 135.32945987 695.7045352 142 695 C142 694.67 142 694.34 142 694 C184.57 694 227.14 694 271 694 C271 694.33 271 694.66 271 695 C288.22159131 695.75484983 305.43169455 696.11763025 322.66796875 696.28125 C323.65959141 696.29079712 324.65121407 696.30034424 325.67288589 696.31018066 C333.90483699 696.38831747 342.13685138 696.45862507 350.36889648 696.52606201 C356.57627852 696.57695192 362.78360195 696.63158138 368.99090004 696.69187927 C371.8748718 696.71835437 374.75884995 696.73918523 377.64286804 696.7598877 C379.38846118 696.77646916 381.1340516 696.79333904 382.87963867 696.81054688 C383.67780502 696.81473129 384.47597137 696.81891571 385.29832458 696.82322693 C390.77218061 696.88609031 390.77218061 696.88609031 393 698 C395.204364 698.22950319 397.41392173 698.41075933 399.625 698.5625 C400.81351563 698.64628906 402.00203125 698.73007813 403.2265625 698.81640625 C404.14179688 698.87699219 405.05703125 698.93757813 406 699 C406.33 700.65 406.66 702.3 407 704 C407.66 704 408.32 704 409 704 C409 704.99 409 705.98 409 707 C409.66 707 410.32 707 411 707 C411 708.65 411 710.3 411 712 C411.99 712 412.98 712 414 712 C414 713.65 414 715.3 414 717 C414.99 716.67 415.98 716.34 417 716 C416.67 717.32 416.34 718.64 416 720 C416.99 720 417.98 720 419 720 C419 721.65 419 723.3 419 725 C419.99 725 420.98 725 422 725 C422 726.65 422 728.3 422 730 C422.66 730 423.32 730 424 730 C424 730.99 424 731.98 424 733 C424.99 733 425.98 733 427 733 C427 734.65 427 736.3 427 738 C427.66 738 428.32 738 429 738 C429.33 739.65 429.66 741.3 430 743 C430.66 743 431.32 743 432 743 C432 743.99 432 744.98 432 746 C432.99 746.33 433.98 746.66 435 747 C435 748.32 435 749.64 435 751 C435.66 751 436.32 751 437 751 C437.33 752.65 437.66 754.3 438 756 C438.66 756 439.32 756 440 756 C440 756.99 440 757.98 440 759 C440.66 759 441.32 759 442 759 C442 760.65 442 762.3 442 764 C442.99 764 443.98 764 445 764 C445 765.65 445 767.3 445 769 C445.99 769.33 446.98 769.66 448 770 C450 773 450 773 450 777 C450.99 777 451.98 777 453 777 C453 778.65 453 780.3 453 782 C453.66 782 454.32 782 455 782 C455.33 782.99 455.66 783.98 456 785 C456.99 785.495 456.99 785.495 458 786 C458 787.32 458 788.64 458 790 C458.66 790 459.32 790 460 790 C460.33 791.65 460.66 793.3 461 795 C461.66 795 462.32 795 463 795 C464.41377341 797.63904371 465.37240135 800.07120629 466 803 C466.66 803 467.32 803 468 803 C468 804.65 468 806.3 468 808 C468.99 808 469.98 808 471 808 C472.25664978 810.90600261 473 812.79604584 473 816 C473.99 816 474.98 816 476 816 C476 817.65 476 819.3 476 821 C476.66 821 477.32 821 478 821 C478.33 822.65 478.66 824.3 479 826 C479.66 826 480.32 826 481 826 C481 826.99 481 827.98 481 829 C481.99 829 482.98 829 484 829 C484 830.65 484 832.3 484 834 C484.66 834 485.32 834 486 834 C486.33 835.65 486.66 837.3 487 839 C487.66 839 488.32 839 489 839 C489.33 840.32 489.66 841.64 490 843 C490.66 843 491.32 843 492 843 C492 843.99 492 844.98 492 846 C492.99 846.495 492.99 846.495 494 847 C494.144375 847.61875 494.28875 848.2375 494.4375 848.875 C494.81671669 851.08028879 494.81671669 851.08028879 496.5 852.375 C498.63927399 854.69254683 498.659511 856.93559899 499 860 C499.99 860 500.98 860 502 860 C502 861.65 502 863.3 502 865 C502.66 865 503.32 865 504 865 C504.33 866.65 504.66 868.3 505 870 C505.66 870 506.32 870 507 870 C509.74375671 872.95481492 510 873.77471908 510 878 C510.66 878 511.32 878 512 878 C512.33 879.65 512.66 881.3 513 883 C513.66 883 514.32 883 515 883 C515.45375 884.134375 515.9075 885.26875 516.375 886.4375 C517.57095806 890.04721692 517.57095806 890.04721692 520 891 C520 892.65 520 894.3 520 896 C520.66 896 521.32 896 522 896 C522 896.66 522 897.32 522 898 C522.99 898.495 522.99 898.495 524 899 C524.625 901.5625 524.625 901.5625 525 904 C525.99 904 526.98 904 528 904 C528 905.65 528 907.3 528 909 C528.66 909 529.32 909 530 909 C532.29648649 911.5614657 533 912.47967572 533 916 C533.66 916 534.32 916 535 916 C535.12375 916.804375 535.2475 917.60875 535.375 918.4375 C535.58125 919.283125 535.7875 920.12875 536 921 C536.99 921.495 536.99 921.495 538 922 C538.144375 922.61875 538.28875 923.2375 538.4375 923.875 C538.81671669 926.08028879 538.81671669 926.08028879 540.5 927.375 C542.63927399 929.69254683 542.659511 931.93559899 543 935 C543.99 935 544.98 935 546 935 C546 936.65 546 938.3 546 940 C546.66 940 547.32 940 548 940 C548.33 941.32 548.66 942.64 549 944 C549.66 944 550.32 944 551 944 C551 944.99 551 945.98 551 947 C551.66 947 552.32 947 553 947 C553.33 948.98 553.66 950.96 554 953 C554.66 953 555.32 953 556 953 C556.268125 953.5775 556.53625 954.155 556.8125 954.75 C557.93639072 957.03995273 557.93639072 957.03995273 559.5625 959 C561.04339987 961.06038243 561.41463976 962.57493617 562 965 C562.99 965.495 562.99 965.495 564 966 C564 967.65 564 969.3 564 971 C564.66 971 565.32 971 566 971 C566 971.66 566 972.32 566 973 C566.99 973.495 566.99 973.495 568 974 C568.66666667 975.33333333 569.33333333 976.66666667 570 978 C570.99 978.495 570.99 978.495 572 979 C572 980.65 572 982.3 572 984 C572.66 984 573.32 984 574 984 C574.33 985.65 574.66 987.3 575 989 C575.66 989 576.32 989 577 989 C577.45375 990.134375 577.9075 991.26875 578.375 992.4375 C579.57095806 996.04721692 579.57095806 996.04721692 582 997 C582 998.65 582 1000.3 582 1002 C582.66 1002 583.32 1002 584 1002 C584 1002.66 584 1003.32 584 1004 C584.99 1004.495 584.99 1004.495 586 1005 C586.625 1007.5625 586.625 1007.5625 587 1010 C587.99 1010 588.98 1010 590 1010 C590 1011.65 590 1013.3 590 1015 C590.66 1015 591.32 1015 592 1015 C592.33 1016.65 592.66 1018.3 593 1020 C593.66 1020 594.32 1020 595 1020 C595.45375 1020.94875 595.9075 1021.8975 596.375 1022.875 C597.80238254 1026.00313679 597.80238254 1026.00313679 600 1028 C600.125 1030.625 600.125 1030.625 600 1033 C600.99 1033 601.98 1033 603 1033 C604.25664978 1035.90600261 605 1037.79604584 605 1041 C605.99 1041 606.98 1041 608 1041 C608 1042.65 608 1044.3 608 1046 C608.66 1046 609.32 1046 610 1046 C610.33 1047.65 610.66 1049.3 611 1051 C611.66 1051 612.32 1051 613 1051 C613.33 1052.32 613.66 1053.64 614 1055 C614.66 1055 615.32 1055 616 1055 C616 1056.32 616 1057.64 616 1059 C616.66 1059 617.32 1059 618 1059 C618 1060.65 618 1062.3 618 1064 C618.99 1064 619.98 1064 621 1064 C621 1065.65 621 1067.3 621 1069 C621.66 1069 622.32 1069 623 1069 C623 1069.99 623 1070.98 623 1072 C623.99 1072 624.98 1072 626 1072 C626 1073.65 626 1075.3 626 1077 C626.66 1077 627.32 1077 628 1077 C628.33 1078.65 628.66 1080.3 629 1082 C629.66 1082 630.32 1082 631 1082 C633.74375671 1084.95481492 634 1085.77471908 634 1090 C634.66 1090 635.32 1090 636 1090 C636 1091.65 636 1093.3 636 1095 C636.99 1095 637.98 1095 639 1095 C639 1096.65 639 1098.3 639 1100 C639.66 1100 640.32 1100 641 1100 C641.33 1101.32 641.66 1102.64 642 1104 C642.66 1104 643.32 1104 644 1104 C644 1105.32 644 1106.64 644 1108 C644.99 1108 645.98 1108 647 1108 C647 1109.65 647 1111.3 647 1113 C647.66 1113 648.32 1113 649 1113 C649.33 1114.65 649.66 1116.3 650 1118 C650.66 1118 651.32 1118 652 1118 C653.76462683 1121.08809695 654 1122.23312136 654 1126 C654.99 1126 655.98 1126 657 1126 C657 1127.65 657 1129.3 657 1131 C657.66 1131 658.32 1131 659 1131 C659.33 1132.65 659.66 1134.3 660 1136 C660.66 1136 661.32 1136 662 1136 C662 1136.99 662 1137.98 662 1139 C662.99 1139 663.98 1139 665 1139 C665 1140.65 665 1142.3 665 1144 C665.66 1144 666.32 1144 667 1144 C667.185625 1144.9590625 667.185625 1144.9590625 667.375 1145.9375 C667.684375 1146.9584375 667.684375 1146.9584375 668 1148 C668.66 1148.33 669.32 1148.66 670 1149 C670.34342449 1150.33076989 670.67619874 1151.66431979 671 1153 C671.66 1153.66 672.32 1154.32 673 1155 C672.67 1155.66 672.34 1156.32 672 1157 C672.99 1157 673.98 1157 675 1157 C675 1158.65 675 1160.3 675 1162 C675.99 1162 676.98 1162 678 1162 C678 1163.65 678 1165.3 678 1167 C678.66 1167 679.32 1167 680 1167 C680.33 1168.65 680.66 1170.3 681 1172 C681.66 1172 682.32 1172 683 1172 C683 1172.99 683 1173.98 683 1175 C683.66 1175 684.32 1175 685 1175 C685.33 1175.99 685.66 1176.98 686 1178 C685.67 1178.66 685.34 1179.32 685 1180 C685.99 1180 686.98 1180 688 1180 C688 1181.65 688 1183.3 688 1185 C688.99 1185.33 689.98 1185.66 691 1186 C691 1187.32 691 1188.64 691 1190 C691.66 1190 692.32 1190 693 1190 C693 1190.99 693 1191.98 693 1193 C693.99 1193 694.98 1193 696 1193 C696 1194.65 696 1196.3 696 1198 C696.66 1198 697.32 1198 698 1198 C698.33 1199.65 698.66 1201.3 699 1203 C699.66 1203 700.32 1203 701 1203 C702 1205 703 1207 704 1209 C703.67 1209.66 703.34 1210.32 703 1211 C703.99 1211 704.98 1211 706 1211 C706 1212.65 706 1214.3 706 1216 C706.99 1216 707.98 1216 709 1216 C709 1217.65 709 1219.3 709 1221 C709.66 1221 710.32 1221 711 1221 C711.33 1222.65 711.66 1224.3 712 1226 C712.66 1226 713.32 1226 714 1226 C714 1226.99 714 1227.98 714 1229 C714.66 1229 715.32 1229 716 1229 C716 1229.99 716 1230.98 716 1232 C716.66 1232 717.32 1232 718 1232 C718 1236.29 718 1240.58 718 1245 C625.47100144 1245.85152148 532.94276773 1246.10496414 436.06005859 1246.12939453 C435.3398193 1246.12957652 434.61958 1246.12975852 433.87751527 1246.12994602 C395.49371961 1246.13963751 357.10992567 1246.13955562 318.72612925 1246.1355505 C295.03173024 1246.13308191 271.337332 1246.13267341 247.64293289 1246.13381577 C245.98023014 1246.13389325 244.31752738 1246.1339704 242.65482462 1246.13404724 C235.96837562 1246.13435787 229.28192662 1246.13467656 222.59547762 1246.135007 C203.9323734 1246.13592209 185.26926917 1246.13649407 166.60616493 1246.13679314 C165.75778372 1246.13680678 164.9094025 1246.13682043 164.03531277 1246.13683449 C137.17356295 1246.1372412 110.31181343 1246.13612978 83.45006371 1246.13394356 C82.58401369 1246.13387331 81.71796366 1246.13380306 80.8256697 1246.13373068 C66.77491328 1246.1325867 52.72415687 1246.1313668 38.67340046 1246.13014051 C-17.24833279 1246.12526517 -73.17006364 1246.12553186 -129.09179688 1246.13037109 C-143.25337537 1246.1315927 -157.41495386 1246.13280391 -171.57653236 1246.13394356 C-172.88526707 1246.13404923 -172.88526707 1246.13404923 -174.22044087 1246.13415704 C-201.15092472 1246.13631644 -228.08140838 1246.13722698 -255.01189232 1246.13679314 C-256.28146429 1246.13677276 -256.28146429 1246.13677276 -257.57668418 1246.13675197 C-276.16128159 1246.1364394 -294.74587898 1246.13580555 -313.33047637 1246.13488263 C-319.97884828 1246.13455363 -326.62722018 1246.13424054 -333.27559209 1246.13393192 C-334.92870723 1246.13385453 -336.58182237 1246.1337758 -338.23493751 1246.13369573 C-364.39287685 1246.13243196 -390.55081513 1246.13383545 -416.70875433 1246.13654587 C-443.75413257 1246.13931776 -470.79950841 1246.13826116 -497.84488632 1246.13301457 C-500.76332506 1246.13246239 -503.68176381 1246.13192567 -506.60020256 1246.13140106 C-507.31625719 1246.13127086 -508.03231182 1246.13114065 -508.77006507 1246.1310065 C-519.98030455 1246.12905558 -531.19054097 1246.13038397 -542.40078016 1246.13317007 C-553.49455926 1246.13585421 -564.58833389 1246.13473633 -575.68211248 1246.13015598 C-581.58278715 1246.12781718 -587.48345059 1246.12687736 -593.38412483 1246.13056196 C-627.26637468 1246.15022565 -661.12523687 1245.69144992 -695 1245 C-695.33 1244.34 -695.66 1243.68 -696 1243 C-707.22 1242.67 -718.44 1242.34 -730 1242 C-730 1239.36 -730 1236.72 -730 1234 C-729.01 1234 -728.02 1234 -727 1234 C-726.67 1232.35 -726.34 1230.7 -726 1229 C-725.34 1229 -724.68 1229 -724 1229 C-723.67 1227.35 -723.34 1225.7 -723 1224 C-722.34 1224 -721.68 1224 -721 1224 C-721 1222.35 -721 1220.7 -721 1219 C-720.01 1219 -719.02 1219 -718 1219 C-718 1217.68 -718 1216.36 -718 1215 C-717.34 1215 -716.68 1215 -716 1215 C-716 1213.68 -716 1212.36 -716 1211 C-715.01 1211 -714.02 1211 -713 1211 C-713 1209.35 -713 1207.7 -713 1206 C-712.01 1206 -711.02 1206 -710 1206 C-710 1204.35 -710 1202.7 -710 1201 C-709.34 1201 -708.68 1201 -708 1201 C-707.87625 1200.4225 -707.7525 1199.845 -707.625 1199.25 C-706.99351176 1196.97664233 -706.11141809 1195.0746471 -705 1193 C-704.34 1193 -703.68 1193 -703 1193 C-702.67 1191.35 -702.34 1189.7 -702 1188 C-701.34 1188 -700.68 1188 -700 1188 C-700 1186.35 -700 1184.7 -700 1183 C-699.01 1183 -698.02 1183 -697 1183 C-696.855625 1182.4225 -696.71125 1181.845 -696.5625 1181.25 C-696.376875 1180.5075 -696.19125 1179.765 -696 1179 C-695.7834375 1177.9171875 -695.7834375 1177.9171875 -695.5625 1176.8125 C-695.2840625 1175.9153125 -695.2840625 1175.9153125 -695 1175 C-694.34 1174.67 -693.68 1174.34 -693 1174 C-692.34786708 1171.97536745 -692.34786708 1171.97536745 -692 1170 C-691.34 1170 -690.68 1170 -690 1170 C-690 1168.35 -690 1166.7 -690 1165 C-689.01 1165 -688.02 1165 -687 1165 C-687 1164.01 -687 1163.02 -687 1162 C-686.34 1162 -685.68 1162 -685 1162 C-684.67 1160.35 -684.34 1158.7 -684 1157 C-683.34 1157 -682.68 1157 -682 1157 C-682 1155.35 -682 1153.7 -682 1152 C-681.01 1152 -680.02 1152 -679 1152 C-678.7834375 1150.8553125 -678.7834375 1150.8553125 -678.5625 1149.6875 C-677.86659538 1146.36262238 -677.43447177 1144.43447177 -675 1142 C-674.67 1141.01 -674.34 1140.02 -674 1139 C-673.34 1139 -672.68 1139 -672 1139 C-671.67 1137.35 -671.34 1135.7 -671 1134 C-670.34 1134 -669.68 1134 -669 1134 C-669 1132.68 -669 1131.36 -669 1130 C-668.34 1130 -667.68 1130 -667 1130 C-666.67 1128.68 -666.34 1127.36 -666 1126 C-665.34 1126 -664.68 1126 -664 1126 C-664 1124.35 -664 1122.7 -664 1121 C-663.01 1121 -662.02 1121 -661 1121 C-661.04125 1120.21625 -661.0825 1119.4325 -661.125 1118.625 C-661 1116 -661 1116 -659 1114 C-658.30062468 1112.68352881 -657.63270867 1111.34977849 -657 1110 C-656.67 1109.34 -656.34 1108.68 -656 1108 C-655.34 1108 -654.68 1108 -654 1108 C-653.67 1106.35 -653.34 1104.7 -653 1103 C-652.34 1103 -651.68 1103 -651 1103 C-651 1101.35 -651 1099.7 -651 1098 C-650.01 1097.67 -649.02 1097.34 -648 1097 C-648 1096.34 -648 1095.68 -648 1095 C-647.34 1095 -646.68 1095 -646 1095 C-646 1093.35 -646 1091.7 -646 1090 C-645.01 1090 -644.02 1090 -643 1090 C-643.04125 1089.2575 -643.0825 1088.515 -643.125 1087.75 C-642.99601866 1084.91241048 -642.42948778 1083.41226062 -641 1081 C-640.34 1081 -639.68 1081 -639 1081 C-638.67 1079.68 -638.34 1078.36 -638 1077 C-637.34 1077 -636.68 1077 -636 1077 C-635.67 1075.35 -635.34 1073.7 -635 1072 C-634.34 1072 -633.68 1072 -633 1072 C-633 1070.35 -633 1068.7 -633 1067 C-632.01 1066.67 -631.02 1066.34 -630 1066 C-630 1065.01 -630 1064.02 -630 1063 C-629.34 1063 -628.68 1063 -628 1063 C-628 1061.35 -628 1059.7 -628 1058 C-627.34 1058 -626.68 1058 -626 1058 C-625.34 1056.35 -624.68 1054.7 -624 1053 C-623.34 1053 -622.68 1053 -622 1053 C-622 1051.35 -622 1049.7 -622 1048 C-621.34 1048 -620.68 1048 -620 1048 C-619.67 1047.01 -619.34 1046.02 -619 1045 C-618.34870203 1043.65909241 -617.68486725 1042.32407669 -617 1041 C-616.34 1041 -615.68 1041 -615 1041 C-615 1039.35 -615 1037.7 -615 1036 C-614.01 1035.67 -613.02 1035.34 -612 1035 C-611.67 1033.35 -611.34 1031.7 -611 1030 C-610.34 1030 -609.68 1030 -609 1030 C-608.731875 1028.865625 -608.46375 1027.73125 -608.1875 1026.5625 C-607.795625 1025.386875 -607.40375 1024.21125 -607 1023 C-606.01 1022.67 -605.02 1022.34 -604 1022 C-604 1020.35 -604 1018.7 -604 1017 C-603.34 1017 -602.68 1017 -602 1017 C-602 1016.01 -602 1015.02 -602 1014 C-601.34 1014 -600.68 1014 -600 1014 C-599.71125 1013.278125 -599.4225 1012.55625 -599.125 1011.8125 C-598.08333333 1009.20833333 -597.04166667 1006.60416667 -596 1004 C-595.34 1004 -594.68 1004 -594 1004 C-593.67 1002.35 -593.34 1000.7 -593 999 C-592.34 999 -591.68 999 -591 999 C-590.34 996.36 -589.68 993.72 -589 991 C-588.01 991 -587.02 991 -586 991 C-586 989.35 -586 987.7 -586 986 C-585.34 986 -584.68 986 -584 986 C-584 985.01 -584 984.02 -584 983 C-583.34 983 -582.68 983 -582 983 C-581.71125 982.278125 -581.4225 981.55625 -581.125 980.8125 C-580.08333333 978.20833333 -579.04166667 975.60416667 -578 973 C-577.34 973 -576.68 973 -576 973 C-575.67 971.35 -575.34 969.7 -575 968 C-574.34 968 -573.68 968 -573 968 C-572.5978125 966.2984375 -572.5978125 966.2984375 -572.1875 964.5625 C-571.795625 963.386875 -571.40375 962.21125 -571 961 C-570.01 960.67 -569.02 960.34 -568 960 C-568 958.35 -568 956.7 -568 955 C-567.01 955 -566.02 955 -565 955 C-565.33 954.01 -565.66 953.02 -566 952 C-565.34 952 -564.68 952 -564 952 C-563.67 950.35 -563.34 948.7 -563 947 C-562.34 947 -561.68 947 -561 947 C-560.67 945.35 -560.34 943.7 -560 942 C-559.34 942 -558.68 942 -558 942 C-558 940.35 -558 938.7 -558 937 C-557.01 937 -556.02 937 -555 937 C-555 936.01 -555 935.02 -555 934 C-554.34 934 -553.68 934 -553 934 C-552.67 932.35 -552.34 930.7 -552 929 C-551.34 929 -550.68 929 -550 929 C-550 927.35 -550 925.7 -550 924 C-549.01 924 -548.02 924 -547 924 C-547.33 923.01 -547.66 922.02 -548 921 C-547.34 921 -546.68 921 -546 921 C-545.67 919.35 -545.34 917.7 -545 916 C-544.01 916 -543.02 916 -542 916 C-542 914.35 -542 912.7 -542 911 C-541.34 911 -540.68 911 -540 911 C-539.67 909.35 -539.34 907.7 -539 906 C-538.34 906 -537.68 906 -537 906 C-537 905.01 -537 904.02 -537 903 C-536.34 903 -535.68 903 -535 903 C-534.67 901.35 -534.34 899.7 -534 898 C-533.34 898 -532.68 898 -532 898 C-532 896.35 -532 894.7 -532 893 C-531.01 893 -530.02 893 -529 893 C-529 892.01 -529 891.02 -529 890 C-528.34 890 -527.68 890 -527 890 C-527 888.35 -527 886.7 -527 885 C-526.01 885 -525.02 885 -524 885 C-524 883.35 -524 881.7 -524 880 C-523.34 880 -522.68 880 -522 880 C-521.67 878.35 -521.34 876.7 -521 875 C-520.34 875 -519.68 875 -519 875 C-517.92474806 872.34771188 -516.90543849 869.71631546 -516 867 C-515.34 867 -514.68 867 -514 867 C-514 865.35 -514 863.7 -514 862 C-513.01 862 -512.02 862 -511 862 C-511 861.01 -511 860.02 -511 859 C-510.34 859 -509.68 859 -509 859 C-508.67 857.35 -508.34 855.7 -508 854 C-507.34 854 -506.68 854 -506 854 C-506 852.35 -506 850.7 -506 849 C-505.01 849 -504.02 849 -503 849 C-503.33 848.01 -503.66 847.02 -504 846 C-503.34 846 -502.68 846 -502 846 C-501.71125 845.278125 -501.4225 844.55625 -501.125 843.8125 C-500.08333333 841.20833333 -499.04166667 838.60416667 -498 836 C-497.34 836 -496.68 836 -496 836 C-496 834.35 -496 832.7 -496 831 C-495.01 831 -494.02 831 -493 831 C-493 830.01 -493 829.02 -493 828 C-492.34 828 -491.68 828 -491 828 C-490.67 826.35 -490.34 824.7 -490 823 C-489.34 823 -488.68 823 -488 823 C-488 821.35 -488 819.7 -488 818 C-487.01 818 -486.02 818 -485 818 C-485.33 817.01 -485.66 816.02 -486 815 C-485.34 815 -484.68 815 -484 815 C-483.01 812.525 -483.01 812.525 -482 810 C-481.34 810 -480.68 810 -480 810 C-480 808.35 -480 806.7 -480 805 C-479.34 805 -478.68 805 -478 805 C-477.67 803.35 -477.34 801.7 -477 800 C-476.34 800 -475.68 800 -475 800 C-475 799.34 -475 798.68 -475 798 C-474.34 798 -473.68 798 -473 798 C-472.67 796.02 -472.34 794.04 -472 792 C-471.34 792 -470.68 792 -470 792 C-470 790.35 -470 788.7 -470 787 C-469.01 787 -468.02 787 -467 787 C-467 786.01 -467 785.02 -467 784 C-466.34 784 -465.68 784 -465 784 C-464.67 782.35 -464.34 780.7 -464 779 C-463.34 779 -462.68 779 -462 779 C-462 777.35 -462 775.7 -462 774 C-461.01 774 -460.02 774 -459 774 C-459.33 773.01 -459.66 772.02 -460 771 C-459.34 771 -458.68 771 -458 771 C-457.71125 770.278125 -457.4225 769.55625 -457.125 768.8125 C-456.08333333 766.20833333 -455.04166667 763.60416667 -454 761 C-453.34 761 -452.68 761 -452 761 C-451.67 759.35 -451.34 757.7 -451 756 C-450.34 756 -449.68 756 -449 756 C-449 755.34 -449 754.68 -449 754 C-448.34 754 -447.68 754 -447 754 C-446.67 752.02 -446.34 750.04 -446 748 C-445.34 748 -444.68 748 -444 748 C-444.144375 746.96875 -444.28875 745.9375 -444.4375 744.875 C-444 741 -444 741 -442.546875 739.515625 C-441.28247172 738.56997885 -440.01679768 737.62602993 -438.75 736.68359375 C-436.11250381 734.14618112 -435.47439086 731.33698888 -434.60546875 727.85546875 C-434.40566406 727.24316406 -434.20585938 726.63085938 -434 726 C-433.34 725.67 -432.68 725.34 -432 725 C-431.67 724.01 -431.34 723.02 -431 722 C-430.34 722 -429.68 722 -429 722 C-429 720.35 -429 718.7 -429 717 C-428.01 717 -427.02 717 -426 717 C-426 715.35 -426 713.7 -426 712 C-425.34 712 -424.68 712 -424 712 C-423.67 710.35 -423.34 708.7 -423 707 C-422.34 707 -421.68 707 -421 707 C-421 705.35 -421 703.7 -421 702 C-420.01 702 -419.02 702 -418 702 C-418 700.35 -418 698.7 -418 697 C-417.34 697 -416.68 697 -416 697 C-416 696.01 -416 695.02 -416 694 C-415.34 693.67 -414.68 693.34 -414 693 C-413.34786708 690.97536745 -413.34786708 690.97536745 -413 689 C-412.34 689 -411.68 689 -411 689 C-410.67 687.35 -410.34 685.7 -410 684 C-409.34 684 -408.68 684 -408 684 C-408 683.01 -408 682.02 -408 681 C-407.34 681 -406.68 681 -406 681 C-405.67 679.35 -405.34 677.7 -405 676 C-404.34 676 -403.68 676 -403 676 C-403 674.35 -403 672.7 -403 671 C-402.01 671 -401.02 671 -400 671 C-400 670.01 -400 669.02 -400 668 C-399.34 668 -398.68 668 -398 668 C-397.67 666.35 -397.34 664.7 -397 663 C-396.34 663 -395.68 663 -395 663 C-394.67 661.35 -394.34 659.7 -394 658 C-393.34 658 -392.68 658 -392 658 C-392 657.01 -392 656.02 -392 655 C-391.34 655 -390.68 655 -390 655 C-389.67 653.35 -389.34 651.7 -389 650 C-388.34 650 -387.68 650 -387 650 C-386.31292445 647.50935112 -386 645.62113708 -386 643 C-385.67 642.01 -385.34 641.02 -385 640 C-383.35 639.67 -381.7 639.34 -380 639 C-379.67 637.68 -379.34 636.36 -379 635 C-378.34 635 -377.68 635 -377 635 C-377.0825 634.2575 -377.165 633.515 -377.25 632.75 C-376.92540958 629.17950533 -375.55230787 628.39762254 -373 626 C-372.36707617 623.88719655 -372.36707617 623.88719655 -372 622 C-371.34 621.67 -370.68 621.34 -370 621 C-369.34786708 618.97536745 -369.34786708 618.97536745 -369 617 C-368.34 617 -367.68 617 -367 617 C-366.67 615.02 -366.34 613.04 -366 611 C-365.34 611 -364.68 611 -364 611 C-363.67 609.35 -363.34 607.7 -363 606 C-362.34 606 -361.68 606 -361 606 C-360.5978125 604.2984375 -360.5978125 604.2984375 -360.1875 602.5625 C-359.795625 601.386875 -359.40375 600.21125 -359 599 C-358.01 598.67 -357.02 598.34 -356 598 C-356 596.35 -356 594.7 -356 593 C-355.34 593 -354.68 593 -354 593 C-353.67 591.35 -353.34 589.7 -353 588 C-352.34 588 -351.68 588 -351 588 C-351 587.01 -351 586.02 -351 585 C-350.34 585 -349.68 585 -349 585 C-348.67 583.35 -348.34 581.7 -348 580 C-347.34 580 -346.68 580 -346 580 C-346 578.35 -346 576.7 -346 575 C-345.01 575 -344.02 575 -343 575 C-343 573.35 -343 571.7 -343 570 C-342.34 570 -341.68 570 -341 570 C-341 569.01 -341 568.02 -341 567 C-340.01 567 -339.02 567 -338 567 C-338 565.35 -338 563.7 -338 562 C-337.34 562 -336.68 562 -336 562 C-335.67 560.35 -335.34 558.7 -335 557 C-334.34 557 -333.68 557 -333 557 C-332.67 555.35 -332.34 553.7 -332 552 C-331.34 552 -330.68 552 -330 552 C-330 551.01 -330 550.02 -330 549 C-329.34 549 -328.68 549 -328 549 C-328 547.35 -328 545.7 -328 544 C-327.01 544 -326.02 544 -325 544 C-325.04125 543.21625 -325.0825 542.4325 -325.125 541.625 C-325 539 -325 539 -323 537 C-322.34 536.67 -321.68 536.34 -321 536 C-320.835 535.175 -320.67 534.35 -320.5 533.5 C-320.335 532.675 -320.17 531.85 -320 531 C-319.34 530.67 -318.68 530.34 -318 530 C-317.34786708 527.97536745 -317.34786708 527.97536745 -317 526 C-316.34 526 -315.68 526 -315 526 C-315 525.01 -315 524.02 -315 523 C-314.34 523 -313.68 523 -313 523 C-312.67 521.35 -312.34 519.7 -312 518 C-311.34 518 -310.68 518 -310 518 C-309.67 516.35 -309.34 514.7 -309 513 C-308.34 513 -307.68 513 -307 513 C-307 511.35 -307 509.7 -307 508 C-306.01 508 -305.02 508 -304 508 C-304.33 507.01 -304.66 506.02 -305 505 C-304.01 505 -303.02 505 -302 505 C-302 503.35 -302 501.7 -302 500 C-301.01 500 -300.02 500 -299 500 C-299 498.35 -299 496.7 -299 495 C-298.34 495 -297.68 495 -297 495 C-297 494.01 -297 493.02 -297 492 C-296.01 492 -295.02 492 -294 492 C-294 490.35 -294 488.7 -294 487 C-293.34 487 -292.68 487 -292 487 C-291.67 485.35 -291.34 483.7 -291 482 C-290.34 482 -289.68 482 -289 482 C-289 479.69 -289 477.38 -289 475 C-287.68 474.67 -286.36 474.34 -285 474 C-285 473.34 -285 472.68 -285 472 C-284.01 472 -283.02 472 -282 472 C-281.87625 471.13375 -281.7525 470.2675 -281.625 469.375 C-281.01533133 466.08278918 -280.23060041 463.11269516 -279 460 C-278.34 459.67 -277.68 459.34 -277 459 C-276.27840576 457.35636866 -275.60648579 455.68949614 -275 454 C-274.34 454 -273.68 454 -273 454 C-272.855625 453.236875 -272.71125 452.47375 -272.5625 451.6875 C-272 449 -272 449 -271 446 C-270.34 446 -269.68 446 -269 446 C-268.67 444.35 -268.34 442.7 -268 441 C-267.34 441 -266.68 441 -266 441 C-266 439.35 -266 437.7 -266 436 C-265.01 436 -264.02 436 -263 436 C-262.87625 435.4225 -262.7525 434.845 -262.625 434.25 C-261.99351176 431.97664233 -261.11141809 430.0746471 -260 428 C-259.34 428 -258.68 428 -258 428 C-257.67 426.35 -257.34 424.7 -257 423 C-256.34 423 -255.68 423 -255 423 C-255 422.01 -255 421.02 -255 420 C-254.34 420 -253.68 420 -253 420 C-253 419.01 -253 418.02 -253 417 C-252.34 417 -251.68 417 -251 417 C-250.855625 415.72125 -250.71125 414.4425 -250.5625 413.125 C-250.29357254 410.74307106 -250.07773654 409.15547309 -249 407 C-247.68 407 -246.36 407 -245 407 C-245 406.34 -245 405.68 -245 405 C-244.34 405 -243.68 405 -243 405 C-242.67 403.02 -242.34 401.04 -242 399 C-241.34 399 -240.68 399 -240 399 C-239.67 397.35 -239.34 395.7 -239 394 C-238.34 394 -237.68 394 -237 394 C-237 393.01 -237 392.02 -237 391 C-236.34 391 -235.68 391 -235 391 C-235 389.35 -235 387.7 -235 386 C-234.01 386 -233.02 386 -232 386 C-232 384.35 -232 382.7 -232 381 C-231.34 380.67 -230.68 380.34 -230 380 C-229.34786708 377.97536745 -229.34786708 377.97536745 -229 376 C-228.34 376 -227.68 376 -227 376 C-227 375.01 -227 374.02 -227 373 C-226.34 373 -225.68 373 -225 373 C-224.67 371.35 -224.34 369.7 -224 368 C-223.34 368 -222.68 368 -222 368 C-222 366.35 -222 364.7 -222 363 C-221.01 363 -220.02 363 -219 363 C-219 361.35 -219 359.7 -219 358 C-218.01 358 -217.02 358 -216 358 C-216.33 357.01 -216.66 356.02 -217 355 C-216.34 355 -215.68 355 -215 355 C-214.67 353.35 -214.34 351.7 -214 350 C-213.34 350 -212.68 350 -212 350 C-211.67 348.35 -211.34 346.7 -211 345 C-210.34 345 -209.68 345 -209 345 C-209 343.35 -209 341.7 -209 340 C-208.01 340 -207.02 340 -206 340 C-206 339.01 -206 338.02 -206 337 C-205.34 337 -204.68 337 -204 337 C-204 335.35 -204 333.7 -204 332 C-203.01 332 -202.02 332 -201 332 C-201.061875 330.824375 -201.061875 330.824375 -201.125 329.625 C-201 327 -201 327 -199 325 C-198.67 324.01 -198.34 323.02 -198 322 C-197.34 322 -196.68 322 -196 322 C-196 321.01 -196 320.02 -196 319 C-195.34 319 -194.68 319 -194 319 C-193.67 317.35 -193.34 315.7 -193 314 C-192.34 314 -191.68 314 -191 314 C-191 312.35 -191 310.7 -191 309 C-190.01 309 -189.02 309 -188 309 C-188.061875 307.824375 -188.061875 307.824375 -188.125 306.625 C-188 304 -188 304 -186 302 C-185.32905022 300.65810043 -184.68332414 299.30331311 -184.0625 297.9375 C-183 296 -183 296 -181 295 C-180.34786708 292.97536745 -180.34786708 292.97536745 -180 291 C-179.34 291 -178.68 291 -178 291 C-178 289.35 -178 287.7 -178 286 C-177.34 286 -176.68 286 -176 286 C-175.67 285.01 -175.34 284.02 -175 283 C-174.34 283 -173.68 283 -173 283 C-173 281.35 -173 279.7 -173 278 C-172.01 278 -171.02 278 -170 278 C-170 276.35 -170 274.7 -170 273 C-169.01 273 -168.02 273 -167 273 C-166.855625 272.236875 -166.71125 271.47375 -166.5625 270.6875 C-165.86659538 267.36262238 -165.43447177 265.43447177 -163 263 C-162.67 262.01 -162.34 261.02 -162 260 C-161.34 260 -160.68 260 -160 260 C-160 258.35 -160 256.7 -160 255 C-159.01 255 -158.02 255 -157 255 C-157 254.01 -157 253.02 -157 252 C-156.34 252 -155.68 252 -155 252 C-154.67 250.35 -154.34 248.7 -154 247 C-153.34 247 -152.68 247 -152 247 C-152 245.35 -152 243.7 -152 242 C-151.01 242 -150.02 242 -149 242 C-148.855625 241.236875 -148.71125 240.47375 -148.5625 239.6875 C-147.86659538 236.36262238 -147.43447177 234.43447177 -145 232 C-144.67 231.01 -144.34 230.02 -144 229 C-143.34 229 -142.68 229 -142 229 C-141.67 227.35 -141.34 225.7 -141 224 C-140.34 224 -139.68 224 -139 224 C-139 223.01 -139 222.02 -139 221 C-138.34 221 -137.68 221 -137 221 C-136.67 219.35 -136.34 217.7 -136 216 C-135.34 216 -134.68 216 -134 216 C-134 214.35 -134 212.7 -134 211 C-133.01 211 -132.02 211 -131 211 C-130.855625 210.236875 -130.71125 209.47375 -130.5625 208.6875 C-130 206 -130 206 -129 203 C-128.34 202.67 -127.68 202.34 -127 202 C-126.65657551 200.66923011 -126.32380126 199.33568021 -126 198 C-125.34 197.34 -124.68 196.68 -124 196 C-123.67 195.01 -123.34 194.02 -123 193 C-122.34 193 -121.68 193 -121 193 C-121 192.01 -121 191.02 -121 190 C-120.34 190 -119.68 190 -119 190 C-118.67 188.35 -118.34 186.7 -118 185 C-117.34 185 -116.68 185 -116 185 C-116 183.35 -116 181.7 -116 180 C-115.01 180 -114.02 180 -113 180 C-113 178.68 -113 177.36 -113 176 C-112.34 176 -111.68 176 -111 176 C-111 174.68 -111 173.36 -111 172 C-110.01 172 -109.02 172 -108 172 C-108 170.35 -108 168.7 -108 167 C-107.34 166.67 -106.68 166.34 -106 166 C-105.34786708 163.97536745 -105.34786708 163.97536745 -105 162 C-104.34 162 -103.68 162 -103 162 C-103 161.01 -103 160.02 -103 159 C-102.34 159 -101.68 159 -101 159 C-100.67 157.35 -100.34 155.7 -100 154 C-99.34 154 -98.68 154 -98 154 C-98 152.35 -98 150.7 -98 149 C-97.01 149 -96.02 149 -95 149 C-95 148.01 -95 147.02 -95 146 C-94.34 146 -93.68 146 -93 146 C-92.67 144.35 -92.34 142.7 -92 141 C-91.34 141 -90.68 141 -90 141 C-90 139.35 -90 137.7 -90 136 C-89.01 136 -88.02 136 -87 136 C-86.855625 135.4225 -86.71125 134.845 -86.5625 134.25 C-86.04166667 132.16666667 -85.52083333 130.08333333 -85 128 C-84.01 128 -83.02 128 -82 128 C-82.061875 126.824375 -82.061875 126.824375 -82.125 125.625 C-82 123 -82 123 -80 121 C-80 120.34 -80 119.68 -80 119 C-79.34 118.67 -78.68 118.34 -78 118 C-77.67 117.01 -77.34 116.02 -77 115 C-76.34 115 -75.68 115 -75 115 C-74.67 113.35 -74.34 111.7 -74 110 C-73.34 110 -72.68 110 -72 110 C-72 108.35 -72 106.7 -72 105 C-71.01 105 -70.02 105 -69 105 C-69 104.01 -69 103.02 -69 102 C-68.34 102 -67.68 102 -67 102 C-66.67 100.35 -66.34 98.7 -66 97 C-65.34 97 -64.68 97 -64 97 C-64 95.35 -64 93.7 -64 92 C-63.01 92 -62.02 92 -61 92 C-61.33 91.01 -61.66 90.02 -62 89 C-61.01 89 -60.02 89 -59 89 C-59 87.35 -59 85.7 -59 84 C-58.01 84 -57.02 84 -56 84 C-56 82.35 -56 80.7 -56 79 C-55.34 79 -54.68 79 -54 79 C-54 78.01 -54 77.02 -54 76 C-53.34 76 -52.68 76 -52 76 C-51.67 74.35 -51.34 72.7 -51 71 C-50.34 71 -49.68 71 -49 71 C-48.67 69.35 -48.34 67.7 -48 66 C-47.34 66 -46.68 66 -46 66 C-46 65.01 -46 64.02 -46 63 C-45.34 63 -44.68 63 -44 63 C-43.67 61.35 -43.34 59.7 -43 58 C-42.34 58 -41.68 58 -41 58 C-41 56.35 -41 54.7 -41 53 C-40.01 53 -39.02 53 -38 53 C-38 52.01 -38 51.02 -38 50 C-37.34 50 -36.68 50 -36 50 C-35.67 48.35 -35.34 46.7 -35 45 C-34.34 45 -33.68 45 -33 45 C-33 43.35 -33 41.7 -33 40 C-32.01 40 -31.02 40 -30 40 C-30.33 39.01 -30.66 38.02 -31 37 C-30.34 37 -29.68 37 -29 37 C-28.67 35.35 -28.34 33.7 -28 32 C-27.01 32 -26.02 32 -25 32 C-25 30.35 -25 28.7 -25 27 C-24.34 27 -23.68 27 -23 27 C-23 26.01 -23 25.02 -23 24 C-22.34 24 -21.68 24 -21 24 C-20.67 22.35 -20.34 20.7 -20 19 C-19.34 19 -18.68 19 -18 19 C-17.67 17.35 -17.34 15.7 -17 14 C-16.34 14 -15.68 14 -15 14 C-15 13.01 -15 12.02 -15 11 C-14.34 11 -13.68 11 -13 11 C-12.67 9.35 -12.34 7.7 -12 6 C-11.34 6 -10.68 6 -10 6 C-9.87625 5.195625 -9.7525 4.39125 -9.625 3.5625 C-9.41875 2.716875 -9.2125 1.87125 -9 1 C-6.04335481 -0.4783226 -3.25770263 -0.06032783 0 0 Z " fill="#FE002A" transform="translate(2427,1258)"/>
<path d="" fill="#FE002A" transform="translate(0,0)"/>
<path d="" fill="#FE002A" transform="translate(0,0)"/>
<path d="" fill="#FE002A" transform="translate(0,0)"/>
<path d="" fill="#FE002A" transform="translate(0,0)"/>
<path d="" fill="#FE002A" transform="translate(0,0)"/>
<path d="" fill="#FE002A" transform="translate(0,0)"/>
<path d="" fill="#FE002A" transform="translate(0,0)"/>
<path d="" fill="#FE002A" transform="translate(0,0)"/>
<path d="" fill="#FE002A" transform="translate(0,0)"/>
<path d="" fill="#FE002A" transform="translate(0,0)"/>
<path d="" fill="#FE002A" transform="translate(0,0)"/>
</svg>
